<?xml version="1.0" encoding="utf-8"?>
<!-- Generator: Adobe Illustrator 16.0.0, SVG Export Plug-In . SVG Version: 6.00 Build 0)  -->
<!DOCTYPE svg PUBLIC "-//W3C//DTD SVG 1.1//EN" "http://www.w3.org/Graphics/SVG/1.1/DTD/svg11.dtd">
<svg version="1.1" xmlns="http://www.w3.org/2000/svg" xmlns:xlink="http://www.w3.org/1999/xlink" x="0px" y="0px" width="200px"
	 height="200px" viewBox="0 0 200 200" enable-background="new 0 0 200 200" xml:space="preserve">
<g id="Layer_1">
	<g>
		<defs>
			<circle id="SVGID_51_" cx="100" cy="100" r="100"/>
		</defs>
		<clipPath id="SVGID_1_">
			<use xlink:href="#SVGID_51_"  overflow="visible"/>
		</clipPath>
		<g clip-path="url(#SVGID_1_)">
			<rect x="-74.573" y="-2.303" fill="#464849" width="374.367" height="205.39"/>
			<g>
				<g>
					<g>
						<rect x="-33.764" y="67.578" fill="#6FC9DA" width="44.263" height="6.104"/>
						<rect x="-33.764" y="90.472" fill="#6FC9DA" width="39.684" height="6.105"/>
						<rect x="8.973" y="46.21" fill="#FFFFFF" width="56.473" height="6.104"/>
						<rect x="18.129" y="69.104" fill="#FFFFFF" width="73.262" height="6.105"/>
						<rect x="13.552" y="90.472" fill="#FFFFFF" width="39.683" height="6.105"/>
						<rect x="71.549" y="46.21" fill="#6FC9DA" width="42.735" height="6.104"/>
						<rect x="95.97" y="67.578" fill="#6FC9DA" width="44.262" height="6.104"/>
						<rect x="59.338" y="90.472" fill="#6FC9DA" width="39.684" height="6.105"/>
						<rect x="-26.131" y="113.366" fill="#6FC9DA" width="36.63" height="6.104"/>
						<rect x="-26.131" y="136.259" fill="#6FC9DA" width="36.63" height="6.105"/>
						<rect x="80.707" y="113.366" fill="#6FC9DA" width="32.051" height="6.104"/>
						<rect x="80.707" y="136.259" fill="#6FC9DA" width="33.577" height="6.105"/>
						<rect x="18.129" y="113.366" fill="#FFFFFF" width="54.945" height="6.104"/>
						<rect x="18.129" y="136.259" fill="#FFFFFF" width="54.945" height="6.105"/>
						<rect x="-33.764" y="159.154" fill="#6FC9DA" width="35.105" height="6.105"/>
					</g>
				</g>
			</g>
			<g>
				<g>
					<path fill="#C1C1C1" d="M144.531,122.247c-0.279,0-0.564-0.077-0.818-0.238c-0.711-0.453-0.92-1.397-0.467-2.107
						c1.805-2.834,2.706-4.464,2.714-4.48c0.41-0.739,1.336-1.006,2.074-0.601c0.737,0.407,1.008,1.336,0.601,2.074
						c-0.037,0.068-0.951,1.721-2.813,4.647C145.53,121.999,145.036,122.247,144.531,122.247z"/>
				</g>
				<g>
					<path fill="#C1C1C1" d="M9.422,228.514c-0.618,0-1.201-0.377-1.429-0.99c-0.297-0.79,0.104-1.67,0.894-1.965
						c3.399-1.273,6.796-2.617,10.096-3.996c0.774-0.325,1.672,0.04,1.997,0.819c0.324,0.778-0.043,1.673-0.82,1.998
						c-3.334,1.393-6.767,2.751-10.202,4.037C9.781,228.483,9.599,228.514,9.422,228.514z M29.562,220.097
						c-0.577,0-1.129-0.328-1.387-0.885c-0.354-0.765-0.021-1.671,0.744-2.026c3.273-1.517,6.559-3.116,9.762-4.752
						c0.751-0.379,1.671-0.084,2.055,0.665c0.383,0.751,0.085,1.671-0.666,2.055c-3.238,1.653-6.558,3.27-9.868,4.803
						C29.994,220.052,29.777,220.097,29.562,220.097z M49,210.166c-0.534,0-1.055-0.28-1.333-0.78
						c-0.412-0.736-0.15-1.666,0.585-2.078c3.146-1.763,6.298-3.609,9.37-5.491c0.719-0.441,1.66-0.212,2.097,0.505
						c0.441,0.717,0.216,1.658-0.502,2.097c-3.106,1.902-6.293,3.771-9.472,5.552C49.509,210.103,49.252,210.166,49,210.166z
						 M67.621,198.766c-0.494,0-0.979-0.238-1.271-0.679c-0.468-0.702-0.278-1.649,0.424-2.116c2.993-1.995,5.995-4.078,8.922-6.195
						c0.68-0.495,1.638-0.342,2.131,0.343c0.493,0.682,0.34,1.636-0.343,2.131c-2.958,2.138-5.993,4.244-9.018,6.259
						C68.205,198.683,67.91,198.766,67.621,198.766z M85.312,185.972c-0.455,0-0.903-0.201-1.203-0.586
						c-0.52-0.664-0.402-1.623,0.262-2.143c2.816-2.203,5.651-4.51,8.423-6.856c0.646-0.547,1.609-0.464,2.151,0.177
						c0.546,0.645,0.464,1.607-0.178,2.151c-2.804,2.373-5.667,4.706-8.516,6.934C85.974,185.865,85.642,185.972,85.312,185.972z
						 M101.979,171.861c-0.412,0-0.824-0.166-1.125-0.496c-0.568-0.622-0.525-1.587,0.097-2.156
						c2.669-2.444,5.319-4.961,7.872-7.484c0.601-0.592,1.565-0.584,2.16,0.014c0.592,0.601,0.586,1.566-0.015,2.159
						c-2.582,2.549-5.259,5.095-7.959,7.564C102.717,171.729,102.349,171.861,101.979,171.861z M117.519,156.509
						c-0.375,0-0.751-0.137-1.043-0.412c-0.616-0.575-0.648-1.542-0.072-2.157c2.467-2.632,4.911-5.347,7.266-8.074
						c0.555-0.638,1.516-0.705,2.154-0.156c0.637,0.551,0.707,1.515,0.155,2.154c-2.381,2.754-4.854,5.501-7.347,8.163
						C118.332,156.346,117.925,156.509,117.519,156.509z M131.791,139.978c-0.332,0-0.667-0.109-0.949-0.331
						c-0.658-0.524-0.771-1.484-0.244-2.145c2.278-2.871,4.485-5.783,6.557-8.653c0.491-0.684,1.444-0.84,2.131-0.344
						c0.685,0.493,0.838,1.447,0.344,2.13c-2.099,2.909-4.333,5.859-6.641,8.768C132.687,139.78,132.241,139.978,131.791,139.978z"
						/>
				</g>
			</g>
			<g>
				<path fill="#2D2D2D" d="M177.131,97.767c0.012,6.101-3.255,12.659-9.246,17.191c-9.185,6.947-21.233,6.487-26.917-1.023
					c-1.429-1.89-2.316-4.047-2.702-6.324c-0.997,4.722-0.224,9.47,2.606,13.213c5.894,7.791,18.394,8.266,27.916,1.06
					C177.15,115.561,180.438,105.423,177.131,97.767z"/>
				<path fill="#3EECB5" d="M186.328,99.762l-9.193-1.463c0.102-3.444-0.825-6.767-2.912-9.522
					c-5.035-6.656-15.073-7.76-23.686-3.088l-6.4-4.142c-0.708-0.456-1.653-0.255-2.11,0.454c-0.458,0.708-0.255,1.653,0.453,2.11
					l5.216,3.375c-0.128,0.092-0.261,0.173-0.388,0.269c-2.762,2.09-4.936,4.612-6.49,7.321l-5.244-1.596
					c-0.808-0.246-1.659,0.211-1.904,1.017c-0.245,0.806,0.211,1.659,1.016,1.904l4.79,1.457c-1.134,2.833-1.604,5.761-1.348,8.555
					l-5.521,0.367c-0.842,0.057-1.477,0.783-1.422,1.625c0.054,0.806,0.725,1.425,1.521,1.425c0.035,0,0.067,0,0.103-0.003
					l5.887-0.392c0.482,1.605,1.232,3.125,2.272,4.501c3.737,4.939,10.229,6.806,16.85,5.546l4.97,6.001
					c0.301,0.365,0.737,0.553,1.177,0.553c0.342,0,0.688-0.115,0.971-0.35c0.649-0.539,0.739-1.501,0.201-2.15l-4.076-4.921
					c2.353-0.819,4.668-2.026,6.825-3.656c0.924-0.699,1.765-1.457,2.558-2.244l6.844,3.926c0.239,0.137,0.5,0.203,0.758,0.203
					c0.529,0,1.042-0.276,1.325-0.767c0.42-0.732,0.166-1.663-0.563-2.084l-6.281-3.604c2.187-2.8,3.62-5.923,4.248-9.056
					l9.075,1.442c0.082,0.014,0.162,0.02,0.242,0.02c0.737,0,1.386-0.534,1.505-1.286
					C187.728,100.677,187.159,99.895,186.328,99.762z M148.467,109.542c-0.312,0-0.625-0.095-0.896-0.292
					c-0.682-0.495-0.833-1.449-0.338-2.131c4.98-6.856,14.229-13.827,14.62-14.12c0.672-0.502,1.629-0.37,2.135,0.305
					c0.506,0.674,0.37,1.631-0.304,2.136c-0.092,0.071-9.274,6.993-13.982,13.473C149.403,109.324,148.938,109.542,148.467,109.542z
					"/>
				<g>
					
						<ellipse transform="matrix(0.6033 0.7975 -0.7975 0.6033 137.8778 -102.1569)" fill="#3EECB5" cx="171.628" cy="87.518" rx="9.086" ry="11.109"/>
					<path fill="#464646" d="M169.641,98.915c-3.327,0-6.276-1.375-8.091-3.774c-1.745-2.308-2.295-5.279-1.547-8.367
						c0.721-2.977,2.575-5.718,5.223-7.721c2.501-1.892,5.48-2.932,8.392-2.932c3.327,0,6.274,1.376,8.089,3.773
						c1.745,2.308,2.296,5.28,1.546,8.368c-0.719,2.976-2.573,5.718-5.22,7.721C175.53,97.875,172.551,98.915,169.641,98.915z
						 M173.617,79.173c-2.249,0-4.575,0.821-6.55,2.314c-2.086,1.579-3.543,3.71-4.098,6.004c-0.527,2.183-0.167,4.244,1.016,5.808
						c1.251,1.654,3.258,2.563,5.655,2.563c2.25,0,4.576-0.822,6.549-2.314c2.087-1.579,3.541-3.713,4.097-6.004
						c0.528-2.182,0.167-4.244-1.015-5.808C178.021,80.083,176.012,79.173,173.617,79.173z"/>
				</g>
				<g>
					<path fill="#464646" d="M148.467,109.542c-0.312,0-0.625-0.095-0.896-0.292c-0.682-0.495-0.833-1.449-0.338-2.131
						c4.98-6.856,14.229-13.827,14.62-14.12c0.672-0.502,1.629-0.37,2.135,0.305c0.506,0.674,0.37,1.631-0.304,2.136
						c-0.092,0.071-9.274,6.993-13.982,13.473C149.403,109.324,148.938,109.542,148.467,109.542z"/>
				</g>
				<g>
					<g>
						<path fill="#3EECB5" d="M174.95,84.458c-0.844,0-1.525-0.683-1.525-1.527v-7.574c0-0.844,0.682-1.526,1.525-1.526
							s1.526,0.683,1.526,1.526v7.574C176.477,83.775,175.794,84.458,174.95,84.458z"/>
					</g>
					<g>
						<path fill="#3EECB5" d="M176.676,86.882c-0.688,0-1.312-0.469-1.481-1.166c-0.201-0.818,0.303-1.644,1.121-1.844l7.603-1.85
							c0.816-0.207,1.644,0.303,1.843,1.123c0.201,0.818-0.302,1.644-1.122,1.844l-7.601,1.85
							C176.916,86.869,176.794,86.882,176.676,86.882z"/>
					</g>
				</g>
			</g>
		</g>
	</g>
</g>
<g id="hover">
</g>
</svg>
