<?xml version="1.0" encoding="utf-8"?>
<!-- Generator: Adobe Illustrator 16.0.0, SVG Export Plug-In . SVG Version: 6.00 Build 0)  -->
<!DOCTYPE svg PUBLIC "-//W3C//DTD SVG 1.1//EN" "http://www.w3.org/Graphics/SVG/1.1/DTD/svg11.dtd">
<svg version="1.1" xmlns="http://www.w3.org/2000/svg" xmlns:xlink="http://www.w3.org/1999/xlink" x="0px" y="0px" width="200px"
	 height="200px" viewBox="0 0 200 200" enable-background="new 0 0 200 200" xml:space="preserve">
<g id="Layer_1">
	<g>
		<defs>
			<circle id="SVGID_55_" cx="100" cy="100" r="100"/>
		</defs>
		<clipPath id="SVGID_1_">
			<use xlink:href="#SVGID_55_"  overflow="visible"/>
		</clipPath>
		<g clip-path="url(#SVGID_1_)">
			<g>
				<polygon fill="#E9EBEC" points="198.067,67.557 -7.103,186.01 -7.103,38.426 198.067,-80.027 				"/>
				<g>
					<path fill="#FFFFFF" d="M-2.456,184.723c-3.517,0-7.064-2.593-7.064-8.384V28.467c0-6.206,4.207-13.5,9.578-16.608
						L188.026-96.907c1.679-0.971,3.339-1.464,4.936-1.464c3.517,0,7.064,2.593,7.064,8.384V57.886c0,6.206-4.207,13.5-9.578,16.608
						L2.479,183.259C0.801,184.23-0.859,184.723-2.456,184.723z"/>
					<g>
						<path fill="#D0D6D8" d="M192.962-95.953c2.748,0,4.646,2.19,4.646,5.966V57.886c0,5.319-3.767,11.851-8.371,14.515
							L1.269,181.167c-1.336,0.773-2.602,1.139-3.725,1.139c-2.748,0-4.646-2.19-4.646-5.966V28.467
							c0-5.319,3.767-11.851,8.371-14.515L189.237-94.814C190.573-95.587,191.839-95.953,192.962-95.953 M192.962-100.788
							L192.962-100.788c-2.027,0-4.095,0.602-6.146,1.789L-1.153,9.766c-6.148,3.557-10.785,11.597-10.785,18.701v147.872
							c0,7.422,4.916,10.802,9.482,10.802c2.027,0,4.095-0.602,6.146-1.789L191.659,76.586c6.148-3.557,10.785-11.597,10.785-18.701
							V-89.986C202.444-97.408,197.528-100.788,192.962-100.788L192.962-100.788z"/>
					</g>
				</g>
				<g>
					<polygon fill="#464849" points="197.608,67.557 -7.103,186.01 -7.103,42.553 197.608,-75.901 					"/>
				</g>
				<polygon fill="#DEE2E4" points="-7.103,33.231 198.067,-85.224 198.067,-75.602 -7.103,42.852 				"/>
				<polygon fill="#6FC9DA" points="19.94,53.222 1.897,63.639 1.897,59.789 19.94,49.373 				"/>
				<polygon fill="#6FC9DA" points="19.94,39.038 1.897,49.455 1.897,45.606 19.94,35.188 				"/>
				<polygon fill="#6FC9DA" points="24.99,64.741 5.504,75.989 5.504,72.14 24.99,60.891 				"/>
				<polygon fill="#6FC9DA" points="24.99,79.903 10.196,88.445 10.196,84.597 24.99,76.054 				"/>
				<polygon fill="#FFFFFF" points="61.164,59.02 28.162,78.072 28.162,74.223 61.164,55.17 				"/>
				<polygon fill="#6FC9DA" points="104.609,33.879 64.51,57.087 64.51,53.238 104.609,30.029 				"/>
				<polygon fill="#6FC9DA" points="24.99,93.61 10.196,102.152 10.196,98.305 24.99,89.762 				"/>
				<polygon fill="#FFFFFF" points="53.105,77.378 28.162,91.78 28.162,87.931 53.105,73.53 				"/>
				<polygon fill="#6FC9DA" points="96.72,52.14 56.621,75.349 56.621,71.5 96.72,48.292 				"/>
				<polygon fill="#6FC9DA" points="24.978,108.057 5.504,119.298 5.504,115.45 24.978,104.208 				"/>
				<g>
					<path fill="#FFBE01" d="M4.966,19.046c0,1.172-0.713,2.535-1.591,3.041c-0.878,0.507-1.591-0.032-1.591-1.204
						c0-1.173,0.713-2.535,1.591-3.04C4.253,17.335,4.966,17.875,4.966,19.046z"/>
					<path fill="#01CA00" d="M9.949,16.169c0,1.172-0.713,2.535-1.591,3.041c-0.878,0.507-1.59-0.032-1.59-1.205
						c0-1.172,0.712-2.534,1.59-3.041C9.236,14.458,9.949,14.996,9.949,16.169z"/>
				</g>
				<polygon fill="#6FC9DA" points="24.99,121.036 5.504,132.286 5.504,128.436 24.99,117.188 				"/>
				<polygon fill="#6FC9DA" points="24.99,136.199 10.196,144.741 10.196,140.892 24.99,132.35 				"/>
				<polygon fill="#FFFFFF" points="71.559,109.314 28.162,134.367 28.162,130.519 71.559,105.463 				"/>
				<polygon fill="#6FC9DA" points="114.714,84.34 74.613,107.548 74.613,103.7 114.714,80.491 				"/>
				<polygon fill="#6FC9DA" points="24.99,149.906 10.196,158.449 10.196,154.597 24.99,146.056 				"/>
				<polygon fill="#FFFFFF" points="55.993,132.006 28.162,148.074 28.162,144.226 55.993,128.159 				"/>
				<polygon fill="#6FC9DA" points="73.335,121.994 58.999,130.271 58.999,126.421 73.335,118.145 				"/>
				<polygon fill="#6FC9DA" points="24.99,162.902 10.196,171.443 10.196,167.596 24.99,159.054 				"/>
				<polygon fill="#FFFFFF" points="78.845,131.811 28.162,161.072 28.162,157.223 78.845,127.961 				"/>
				<polygon fill="#6FC9DA" points="96.116,121.838 81.781,130.116 81.781,126.266 96.116,117.991 				"/>
			</g>
			<g>
				<g>
					<polygon fill="#FFFFFF" points="274.295,125.115 69.127,243.568 69.127,95.984 274.295,-22.469 					"/>
					<g>
						<path fill="#FFFFFF" d="M73.773,242.281c-3.517,0-7.064-2.593-7.064-8.384V86.024c0-6.206,4.207-13.5,9.578-16.608
							L264.256-39.349c1.679-0.971,3.339-1.464,4.936-1.464c3.517,0,7.064,2.593,7.064,8.384v147.872
							c0,6.206-4.207,13.5-9.578,16.608L78.709,240.817C77.03,241.789,75.37,242.281,73.773,242.281z"/>
						<g>
							<path fill="#D0D6D8" d="M269.191-38.395c2.748,0,4.646,2.19,4.646,5.966v147.872c0,5.319-3.767,11.851-8.371,14.515
								L77.498,238.725c-1.336,0.773-2.602,1.139-3.725,1.139c-2.748,0-4.646-2.19-4.646-5.966V86.024
								c0-5.319,3.767-11.851,8.371-14.515L265.467-37.256C266.803-38.029,268.068-38.395,269.191-38.395 M269.191-43.23
								L269.191-43.23c-2.027,0-4.095,0.602-6.146,1.789L75.076,67.324c-6.148,3.557-10.785,11.597-10.785,18.701v147.873
								c0,7.421,4.916,10.802,9.482,10.802c2.027,0,4.095-0.602,6.146-1.789l187.969-108.766
								c6.148-3.557,10.785-11.597,10.785-18.701V-32.428C278.674-39.85,273.759-43.23,269.191-43.23L269.191-43.23z"/>
						</g>
					</g>
					<g>
						<path fill="#D1D3D3" d="M273.838,115.443c0,5.319-3.767,11.851-8.371,14.515L77.498,238.725
							c-4.604,2.664-8.371,0.492-8.371-4.828V126.084c0-5.319,3.767-11.851,8.371-14.515L265.467,2.804
							c4.604-2.664,8.371-0.492,8.371,4.828V115.443z"/>
					</g>
					<polygon fill="#DEE2E4" points="69.679,90.789 274.847,-27.666 274.847,-18.044 69.679,100.409 					"/>
					<polygon fill="#FFFFFF" points="96.72,111.744 78.678,122.159 78.678,118.31 96.72,107.893 					"/>
					<polygon fill="#FFFFFF" points="99.606,153.381 82.287,163.38 82.287,159.532 99.606,149.531 					"/>
					<polygon fill="#FFFFFF" points="98.333,197.102 81.734,206.686 81.734,202.837 98.333,193.253 					"/>
					<g>
						<path fill="#FF6251" d="M76.761,79.483c0,1.171-0.712,2.533-1.59,3.04c-0.88,0.508-1.591-0.032-1.591-1.204
							c0-1.173,0.711-2.535,1.591-3.042C76.049,77.771,76.761,78.31,76.761,79.483z"/>
						<path fill="#FFBE01" d="M81.745,76.604c0,1.172-0.711,2.535-1.591,3.041c-0.878,0.507-1.591-0.032-1.591-1.205
							c0-1.172,0.713-2.534,1.591-3.04C81.034,74.893,81.745,75.432,81.745,76.604z"/>
						<path fill="#01CA00" d="M86.729,73.727c0,1.172-0.711,2.535-1.59,3.041c-0.879,0.507-1.591-0.031-1.591-1.204
							s0.712-2.534,1.591-3.041C86.018,72.016,86.729,72.554,86.729,73.727z"/>
					</g>
				</g>
				<polygon fill="#FF3E86" points="274.847,13.963 69.679,132.416 69.679,100.409 274.847,-18.044 				"/>
				<g>
					<polygon fill="#FFFFFF" points="91.277,110.073 76.896,118.376 76.896,106.117 91.277,97.812 					"/>
				</g>
				<polygon fill="#E9EBEC" points="103.324,161.249 77.344,176.249 77.344,141.607 103.324,126.607 				"/>
				<g>
					<polygon fill="#E9EBEC" points="142.901,117.914 112.591,135.412 112.591,132.527 142.901,115.026 					"/>
					<polygon fill="#E9EBEC" points="142.901,123.095 112.591,140.597 112.591,137.71 142.901,120.209 					"/>
					<polygon fill="#E9EBEC" points="132.799,134.111 112.591,145.778 112.591,142.892 132.799,131.224 					"/>
				</g>
				<polygon fill="#E9EBEC" points="199.689,105.612 173.709,120.611 173.709,85.97 199.689,70.97 				"/>
				<polygon fill="#E9EBEC" points="103.324,211.287 77.344,226.285 77.344,191.646 103.324,176.645 				"/>
				<g>
					<polygon fill="#E9EBEC" points="142.901,167.952 112.591,185.45 112.591,182.563 142.901,165.064 					"/>
					<polygon fill="#E9EBEC" points="142.901,173.133 112.591,190.633 112.591,187.746 142.901,170.247 					"/>
					<polygon fill="#E9EBEC" points="132.799,184.148 112.591,195.817 112.591,192.929 132.799,181.262 					"/>
				</g>
				<polygon fill="#E9EBEC" points="199.689,155.648 173.709,170.649 173.709,136.007 199.689,121.008 				"/>
			</g>
		</g>
	</g>
</g>
<g id="hover">
</g>
</svg>
