<?xml version="1.0" encoding="utf-8"?>
<!-- Generator: Adobe Illustrator 16.0.0, SVG Export Plug-In . SVG Version: 6.00 Build 0)  -->
<!DOCTYPE svg PUBLIC "-//W3C//DTD SVG 1.1//EN" "http://www.w3.org/Graphics/SVG/1.1/DTD/svg11.dtd">
<svg version="1.1" xmlns="http://www.w3.org/2000/svg" xmlns:xlink="http://www.w3.org/1999/xlink" x="0px" y="0px" width="200px"
	 height="200px" viewBox="0 0 200 200" enable-background="new 0 0 200 200" xml:space="preserve">
<g id="Layer_1">
	<g>
		<defs>
			<circle id="SVGID_53_" cx="100" cy="100" r="100"/>
		</defs>
		<clipPath id="SVGID_1_">
			<use xlink:href="#SVGID_53_"  overflow="visible"/>
		</clipPath>
		<g clip-path="url(#SVGID_1_)">
			<rect x="-9.281" y="-2.433" fill="#505151" width="82.324" height="220.36"/>
			<rect x="72.808" y="-2.433" fill="#464849" width="194.191" height="220.064"/>
			<rect x="-9.781" y="104.02" opacity="0.05" fill="#FFFFFF" width="82.115" height="19.872"/>
			<g>
				<rect x="15.995" y="35.89" fill="#D0D6D8" width="43.27" height="5.678"/>
				<rect x="1.572" y="10.341" fill="#D0D6D8" width="28.846" height="5.678"/>
				<rect x="15.995" y="60.02" fill="#D0D6D8" width="36.058" height="5.677"/>
				<rect x="15.995" y="85.568" fill="#D0D6D8" width="43.27" height="5.677"/>
				<rect x="30.418" y="109.698" fill="#D0D6D8" width="28.847" height="5.677"/>
			</g>
			<rect x="90.994" y="10.341" fill="#FFFFFF" width="35.484" height="5.678"/>
			<rect x="90.994" y="33.051" fill="#FFFFFF" width="38.323" height="5.678"/>
			<rect x="109.081" y="52.923" fill="#6FC9DA" width="42.581" height="5.678"/>
			<rect x="109.081" y="75.633" fill="#FFFFFF" width="82.393" height="5.677"/>
			<rect x="127.167" y="96.924" fill="#FFFFFF" width="102.403" height="5.678"/>
			<rect x="127.167" y="116.795" fill="#FFFFFF" width="46.841" height="5.678"/>
			<rect x="109.081" y="138.086" fill="#6FC9DA" width="32.646" height="5.677"/>
			<rect x="109.081" y="161.094" fill="#6FC9DA" width="42.581" height="5.677"/>
			<rect x="109.081" y="183.804" fill="#FFFFFF" width="82.393" height="5.677"/>
		</g>
	</g>
</g>
<g id="hover">
</g>
</svg>
