<?xml version="1.0" encoding="utf-8"?>
<!-- Generator: Adobe Illustrator 16.0.0, SVG Export Plug-In . SVG Version: 6.00 Build 0)  -->
<!DOCTYPE svg PUBLIC "-//W3C//DTD SVG 1.1//EN" "http://www.w3.org/Graphics/SVG/1.1/DTD/svg11.dtd">
<svg version="1.1" id="Layer_1" xmlns="http://www.w3.org/2000/svg" xmlns:xlink="http://www.w3.org/1999/xlink" x="0px" y="0px"
	 width="526px" height="405px" viewBox="0 0 526 405" enable-background="new 0 0 526 405" xml:space="preserve">
<g id="Layer_1_1_">
	<g>
		<rect x="31.603" y="330.339" fill="#0ADDA6" width="494.798" height="20"/>
		<g>
			<g>
				<g>
					<rect x="31.901" y="350.339" fill="#3C3C3C" stroke="#3C3C3C" stroke-miterlimit="10" width="26.5" height="26.5"/>
					
						<line fill="none" stroke="#6D6D6D" stroke-width="2" stroke-miterlimit="10" x1="45.151" y1="363.589" x2="45.151" y2="376.839"/>
					<rect x="31.901" y="350.339" fill="none" stroke="#6D6D6D" stroke-miterlimit="10" width="26.5" height="13.25"/>
					<path fill="none" stroke="#6D6D6D" stroke-miterlimit="10" d="M45.151,376.839"/>
					
						<line fill="none" stroke="#6D6D6D" stroke-width="2" stroke-miterlimit="10" x1="31.401" y1="376.339" x2="58.901" y2="376.339"/>
				</g>
				<g>
					<rect x="59.401" y="350.339" fill="#3C3C3C" stroke="#3C3C3C" stroke-miterlimit="10" width="26.5" height="26.5"/>
					
						<line fill="none" stroke="#6D6D6D" stroke-width="2" stroke-miterlimit="10" x1="72.651" y1="363.589" x2="72.651" y2="376.839"/>
					<rect x="59.401" y="350.339" fill="none" stroke="#6D6D6D" stroke-miterlimit="10" width="26.5" height="13.25"/>
					<path fill="none" stroke="#6D6D6D" stroke-miterlimit="10" d="M72.651,376.839"/>
					
						<line fill="none" stroke="#6D6D6D" stroke-width="2" stroke-miterlimit="10" x1="58.901" y1="376.339" x2="86.401" y2="376.339"/>
				</g>
				<g>
					<rect x="86.901" y="350.339" fill="#3C3C3C" stroke="#3C3C3C" stroke-miterlimit="10" width="26.5" height="26.5"/>
					
						<line fill="none" stroke="#6D6D6D" stroke-width="2" stroke-miterlimit="10" x1="100.151" y1="363.589" x2="100.151" y2="376.839"/>
					<rect x="86.901" y="350.339" fill="none" stroke="#6D6D6D" stroke-miterlimit="10" width="26.5" height="13.25"/>
					<path fill="none" stroke="#6D6D6D" stroke-miterlimit="10" d="M100.151,376.839"/>
					
						<line fill="none" stroke="#6D6D6D" stroke-width="2" stroke-miterlimit="10" x1="86.401" y1="376.339" x2="113.901" y2="376.339"/>
				</g>
				<g>
					<rect x="31.901" y="377.559" fill="#3C3C3C" stroke="#3C3C3C" stroke-miterlimit="10" width="26.5" height="26.5"/>
					
						<line fill="none" stroke="#6D6D6D" stroke-width="2" stroke-miterlimit="10" x1="45.151" y1="390.809" x2="45.151" y2="404.059"/>
					<rect x="31.901" y="377.559" fill="none" stroke="#6D6D6D" stroke-miterlimit="10" width="26.5" height="13.25"/>
					<path fill="none" stroke="#6D6D6D" stroke-miterlimit="10" d="M45.151,404.059"/>
					
						<line fill="none" stroke="#6D6D6D" stroke-width="2" stroke-miterlimit="10" x1="31.401" y1="403.559" x2="58.901" y2="403.559"/>
				</g>
				<g>
					<rect x="59.401" y="377.559" fill="#3C3C3C" stroke="#3C3C3C" stroke-miterlimit="10" width="26.5" height="26.5"/>
					
						<line fill="none" stroke="#6D6D6D" stroke-width="2" stroke-miterlimit="10" x1="72.651" y1="390.809" x2="72.651" y2="404.059"/>
					<rect x="59.401" y="377.559" fill="none" stroke="#6D6D6D" stroke-miterlimit="10" width="26.5" height="13.25"/>
					<path fill="none" stroke="#6D6D6D" stroke-miterlimit="10" d="M72.651,404.059"/>
					
						<line fill="none" stroke="#6D6D6D" stroke-width="2" stroke-miterlimit="10" x1="58.901" y1="403.559" x2="86.401" y2="403.559"/>
				</g>
				<g>
					<rect x="86.901" y="377.559" fill="#3C3C3C" stroke="#3C3C3C" stroke-miterlimit="10" width="26.5" height="26.5"/>
					
						<line fill="none" stroke="#6D6D6D" stroke-width="2" stroke-miterlimit="10" x1="100.151" y1="390.809" x2="100.151" y2="404.059"/>
					<rect x="86.901" y="377.559" fill="none" stroke="#6D6D6D" stroke-miterlimit="10" width="26.5" height="13.25"/>
					<path fill="none" stroke="#6D6D6D" stroke-miterlimit="10" d="M100.151,404.059"/>
					
						<line fill="none" stroke="#6D6D6D" stroke-width="2" stroke-miterlimit="10" x1="86.401" y1="403.559" x2="113.901" y2="403.559"/>
				</g>
				<g>
					<rect x="114.401" y="350.339" fill="#3C3C3C" stroke="#3C3C3C" stroke-miterlimit="10" width="26.5" height="26.5"/>
					
						<line fill="none" stroke="#6D6D6D" stroke-width="2" stroke-miterlimit="10" x1="127.651" y1="363.589" x2="127.651" y2="376.839"/>
					<rect x="114.401" y="350.339" fill="none" stroke="#6D6D6D" stroke-miterlimit="10" width="26.5" height="13.25"/>
					<path fill="none" stroke="#6D6D6D" stroke-miterlimit="10" d="M127.651,376.839"/>
					
						<line fill="none" stroke="#6D6D6D" stroke-width="2" stroke-miterlimit="10" x1="113.901" y1="376.339" x2="141.401" y2="376.339"/>
				</g>
				<g>
					<rect x="141.901" y="350.339" fill="#3C3C3C" stroke="#3C3C3C" stroke-miterlimit="10" width="26.5" height="26.5"/>
					
						<line fill="none" stroke="#6D6D6D" stroke-width="2" stroke-miterlimit="10" x1="155.151" y1="363.589" x2="155.151" y2="376.839"/>
					<rect x="141.901" y="350.339" fill="none" stroke="#6D6D6D" stroke-miterlimit="10" width="26.5" height="13.25"/>
					<path fill="none" stroke="#6D6D6D" stroke-miterlimit="10" d="M155.151,376.839"/>
					
						<line fill="none" stroke="#6D6D6D" stroke-width="2" stroke-miterlimit="10" x1="141.401" y1="376.339" x2="168.901" y2="376.339"/>
				</g>
				<g>
					<rect x="169.401" y="350.339" fill="#3C3C3C" stroke="#3C3C3C" stroke-miterlimit="10" width="26.5" height="26.5"/>
					
						<line fill="none" stroke="#6D6D6D" stroke-width="2" stroke-miterlimit="10" x1="182.651" y1="363.589" x2="182.651" y2="376.839"/>
					<rect x="169.401" y="350.339" fill="none" stroke="#6D6D6D" stroke-miterlimit="10" width="26.5" height="13.25"/>
					<path fill="none" stroke="#6D6D6D" stroke-miterlimit="10" d="M182.651,376.839"/>
					
						<line fill="none" stroke="#6D6D6D" stroke-width="2" stroke-miterlimit="10" x1="168.901" y1="376.339" x2="196.401" y2="376.339"/>
				</g>
				<g>
					<rect x="114.401" y="377.559" fill="#3C3C3C" stroke="#3C3C3C" stroke-miterlimit="10" width="26.5" height="26.5"/>
					
						<line fill="none" stroke="#6D6D6D" stroke-width="2" stroke-miterlimit="10" x1="127.651" y1="390.809" x2="127.651" y2="404.059"/>
					<rect x="114.401" y="377.559" fill="none" stroke="#6D6D6D" stroke-miterlimit="10" width="26.5" height="13.25"/>
					<path fill="none" stroke="#6D6D6D" stroke-miterlimit="10" d="M127.651,404.059"/>
					
						<line fill="none" stroke="#6D6D6D" stroke-width="2" stroke-miterlimit="10" x1="113.901" y1="403.559" x2="141.401" y2="403.559"/>
				</g>
				<g>
					<rect x="141.901" y="377.559" fill="#3C3C3C" stroke="#3C3C3C" stroke-miterlimit="10" width="26.5" height="26.5"/>
					
						<line fill="none" stroke="#6D6D6D" stroke-width="2" stroke-miterlimit="10" x1="155.151" y1="390.809" x2="155.151" y2="404.059"/>
					<rect x="141.901" y="377.559" fill="none" stroke="#6D6D6D" stroke-miterlimit="10" width="26.5" height="13.25"/>
					<path fill="none" stroke="#6D6D6D" stroke-miterlimit="10" d="M155.151,404.059"/>
					
						<line fill="none" stroke="#6D6D6D" stroke-width="2" stroke-miterlimit="10" x1="141.401" y1="403.559" x2="168.901" y2="403.559"/>
				</g>
				<g>
					<rect x="169.401" y="377.559" fill="#3C3C3C" stroke="#3C3C3C" stroke-miterlimit="10" width="26.5" height="26.5"/>
					
						<line fill="none" stroke="#6D6D6D" stroke-width="2" stroke-miterlimit="10" x1="182.651" y1="390.809" x2="182.651" y2="404.059"/>
					<rect x="169.401" y="377.559" fill="none" stroke="#6D6D6D" stroke-miterlimit="10" width="26.5" height="13.25"/>
					<path fill="none" stroke="#6D6D6D" stroke-miterlimit="10" d="M182.651,404.059"/>
					
						<line fill="none" stroke="#6D6D6D" stroke-width="2" stroke-miterlimit="10" x1="168.901" y1="403.559" x2="196.401" y2="403.559"/>
				</g>
				<g>
					<rect x="196.901" y="350.339" fill="#3C3C3C" stroke="#3C3C3C" stroke-miterlimit="10" width="26.5" height="26.5"/>
					
						<line fill="none" stroke="#6D6D6D" stroke-width="2" stroke-miterlimit="10" x1="210.151" y1="363.589" x2="210.151" y2="376.839"/>
					<rect x="196.901" y="350.339" fill="none" stroke="#6D6D6D" stroke-miterlimit="10" width="26.5" height="13.25"/>
					<path fill="none" stroke="#6D6D6D" stroke-miterlimit="10" d="M210.151,376.839"/>
					
						<line fill="none" stroke="#6D6D6D" stroke-width="2" stroke-miterlimit="10" x1="196.401" y1="376.339" x2="223.901" y2="376.339"/>
				</g>
				<g>
					<rect x="224.401" y="350.339" fill="#3C3C3C" stroke="#3C3C3C" stroke-miterlimit="10" width="26.5" height="26.5"/>
					
						<line fill="none" stroke="#6D6D6D" stroke-width="2" stroke-miterlimit="10" x1="237.651" y1="363.589" x2="237.651" y2="376.839"/>
					<rect x="224.401" y="350.339" fill="none" stroke="#6D6D6D" stroke-miterlimit="10" width="26.5" height="13.25"/>
					<path fill="none" stroke="#6D6D6D" stroke-miterlimit="10" d="M237.651,376.839"/>
					
						<line fill="none" stroke="#6D6D6D" stroke-width="2" stroke-miterlimit="10" x1="223.901" y1="376.339" x2="251.401" y2="376.339"/>
				</g>
				<g>
					<rect x="251.901" y="350.339" fill="#3C3C3C" stroke="#3C3C3C" stroke-miterlimit="10" width="26.5" height="26.5"/>
					
						<line fill="none" stroke="#6D6D6D" stroke-width="2" stroke-miterlimit="10" x1="265.15" y1="363.589" x2="265.15" y2="376.839"/>
					<rect x="251.901" y="350.339" fill="none" stroke="#6D6D6D" stroke-miterlimit="10" width="26.5" height="13.25"/>
					<path fill="none" stroke="#6D6D6D" stroke-miterlimit="10" d="M265.15,376.839"/>
					
						<line fill="none" stroke="#6D6D6D" stroke-width="2" stroke-miterlimit="10" x1="251.401" y1="376.339" x2="278.9" y2="376.339"/>
				</g>
				<g>
					<rect x="196.901" y="377.559" fill="#3C3C3C" stroke="#3C3C3C" stroke-miterlimit="10" width="26.5" height="26.5"/>
					
						<line fill="none" stroke="#6D6D6D" stroke-width="2" stroke-miterlimit="10" x1="210.151" y1="390.809" x2="210.151" y2="404.059"/>
					<rect x="196.901" y="377.559" fill="none" stroke="#6D6D6D" stroke-miterlimit="10" width="26.5" height="13.25"/>
					<path fill="none" stroke="#6D6D6D" stroke-miterlimit="10" d="M210.151,404.059"/>
					
						<line fill="none" stroke="#6D6D6D" stroke-width="2" stroke-miterlimit="10" x1="196.401" y1="403.559" x2="223.901" y2="403.559"/>
				</g>
				<g>
					<rect x="224.401" y="377.559" fill="#3C3C3C" stroke="#3C3C3C" stroke-miterlimit="10" width="26.5" height="26.5"/>
					
						<line fill="none" stroke="#6D6D6D" stroke-width="2" stroke-miterlimit="10" x1="237.651" y1="390.809" x2="237.651" y2="404.059"/>
					<rect x="224.401" y="377.559" fill="none" stroke="#6D6D6D" stroke-miterlimit="10" width="26.5" height="13.25"/>
					<path fill="none" stroke="#6D6D6D" stroke-miterlimit="10" d="M237.651,404.059"/>
					
						<line fill="none" stroke="#6D6D6D" stroke-width="2" stroke-miterlimit="10" x1="223.901" y1="403.559" x2="251.401" y2="403.559"/>
				</g>
				<g>
					<rect x="251.901" y="377.559" fill="#3C3C3C" stroke="#3C3C3C" stroke-miterlimit="10" width="26.5" height="26.5"/>
					
						<line fill="none" stroke="#6D6D6D" stroke-width="2" stroke-miterlimit="10" x1="265.15" y1="390.809" x2="265.15" y2="404.059"/>
					<rect x="251.901" y="377.559" fill="none" stroke="#6D6D6D" stroke-miterlimit="10" width="26.5" height="13.25"/>
					<path fill="none" stroke="#6D6D6D" stroke-miterlimit="10" d="M265.15,404.059"/>
					
						<line fill="none" stroke="#6D6D6D" stroke-width="2" stroke-miterlimit="10" x1="251.401" y1="403.559" x2="278.9" y2="403.559"/>
				</g>
			</g>
		</g>
		<g>
			<g>
				<g>
					<rect x="279.4" y="350.339" fill="#3C3C3C" stroke="#3C3C3C" stroke-miterlimit="10" width="26.5" height="26.5"/>
					
						<line fill="none" stroke="#6D6D6D" stroke-width="2" stroke-miterlimit="10" x1="292.65" y1="363.589" x2="292.65" y2="376.839"/>
					<rect x="279.4" y="350.339" fill="none" stroke="#6D6D6D" stroke-miterlimit="10" width="26.5" height="13.25"/>
					<path fill="none" stroke="#6D6D6D" stroke-miterlimit="10" d="M292.65,376.839"/>
					
						<line fill="none" stroke="#6D6D6D" stroke-width="2" stroke-miterlimit="10" x1="278.9" y1="376.339" x2="306.4" y2="376.339"/>
				</g>
				<g>
					<rect x="306.9" y="350.339" fill="#3C3C3C" stroke="#3C3C3C" stroke-miterlimit="10" width="26.5" height="26.5"/>
					
						<line fill="none" stroke="#6D6D6D" stroke-width="2" stroke-miterlimit="10" x1="320.15" y1="363.589" x2="320.15" y2="376.839"/>
					<rect x="306.9" y="350.339" fill="none" stroke="#6D6D6D" stroke-miterlimit="10" width="26.5" height="13.25"/>
					<path fill="none" stroke="#6D6D6D" stroke-miterlimit="10" d="M320.15,376.839"/>
					
						<line fill="none" stroke="#6D6D6D" stroke-width="2" stroke-miterlimit="10" x1="306.4" y1="376.339" x2="333.9" y2="376.339"/>
				</g>
				<g>
					<rect x="334.4" y="350.339" fill="#3C3C3C" stroke="#3C3C3C" stroke-miterlimit="10" width="26.5" height="26.5"/>
					
						<line fill="none" stroke="#6D6D6D" stroke-width="2" stroke-miterlimit="10" x1="347.65" y1="363.589" x2="347.65" y2="376.839"/>
					<rect x="334.4" y="350.339" fill="none" stroke="#6D6D6D" stroke-miterlimit="10" width="26.5" height="13.25"/>
					<path fill="none" stroke="#6D6D6D" stroke-miterlimit="10" d="M347.65,376.839"/>
					
						<line fill="none" stroke="#6D6D6D" stroke-width="2" stroke-miterlimit="10" x1="333.9" y1="376.339" x2="361.4" y2="376.339"/>
				</g>
				<g>
					<rect x="279.4" y="377.559" fill="#3C3C3C" stroke="#3C3C3C" stroke-miterlimit="10" width="26.5" height="26.5"/>
					
						<line fill="none" stroke="#6D6D6D" stroke-width="2" stroke-miterlimit="10" x1="292.65" y1="390.809" x2="292.65" y2="404.059"/>
					<rect x="279.4" y="377.559" fill="none" stroke="#6D6D6D" stroke-miterlimit="10" width="26.5" height="13.25"/>
					<path fill="none" stroke="#6D6D6D" stroke-miterlimit="10" d="M292.65,404.059"/>
					
						<line fill="none" stroke="#6D6D6D" stroke-width="2" stroke-miterlimit="10" x1="278.9" y1="403.559" x2="306.4" y2="403.559"/>
				</g>
				<g>
					<rect x="306.9" y="377.559" fill="#3C3C3C" stroke="#3C3C3C" stroke-miterlimit="10" width="26.5" height="26.5"/>
					
						<line fill="none" stroke="#6D6D6D" stroke-width="2" stroke-miterlimit="10" x1="320.15" y1="390.809" x2="320.15" y2="404.059"/>
					<rect x="306.9" y="377.559" fill="none" stroke="#6D6D6D" stroke-miterlimit="10" width="26.5" height="13.25"/>
					<path fill="none" stroke="#6D6D6D" stroke-miterlimit="10" d="M320.15,404.059"/>
					
						<line fill="none" stroke="#6D6D6D" stroke-width="2" stroke-miterlimit="10" x1="306.4" y1="403.559" x2="333.9" y2="403.559"/>
				</g>
				<g>
					<rect x="334.4" y="377.559" fill="#3C3C3C" stroke="#3C3C3C" stroke-miterlimit="10" width="26.5" height="26.5"/>
					
						<line fill="none" stroke="#6D6D6D" stroke-width="2" stroke-miterlimit="10" x1="347.65" y1="390.809" x2="347.65" y2="404.059"/>
					<rect x="334.4" y="377.559" fill="none" stroke="#6D6D6D" stroke-miterlimit="10" width="26.5" height="13.25"/>
					<path fill="none" stroke="#6D6D6D" stroke-miterlimit="10" d="M347.65,404.059"/>
					
						<line fill="none" stroke="#6D6D6D" stroke-width="2" stroke-miterlimit="10" x1="333.9" y1="403.559" x2="361.4" y2="403.559"/>
				</g>
				<g>
					<rect x="361.9" y="350.339" fill="#3C3C3C" stroke="#3C3C3C" stroke-miterlimit="10" width="26.5" height="26.5"/>
					
						<line fill="none" stroke="#6D6D6D" stroke-width="2" stroke-miterlimit="10" x1="375.15" y1="363.589" x2="375.15" y2="376.839"/>
					<rect x="361.9" y="350.339" fill="none" stroke="#6D6D6D" stroke-miterlimit="10" width="26.5" height="13.25"/>
					<path fill="none" stroke="#6D6D6D" stroke-miterlimit="10" d="M375.15,376.839"/>
					
						<line fill="none" stroke="#6D6D6D" stroke-width="2" stroke-miterlimit="10" x1="361.4" y1="376.339" x2="388.9" y2="376.339"/>
				</g>
				<g>
					<rect x="389.4" y="350.339" fill="#3C3C3C" stroke="#3C3C3C" stroke-miterlimit="10" width="26.501" height="26.5"/>
					
						<line fill="none" stroke="#6D6D6D" stroke-width="2" stroke-miterlimit="10" x1="402.651" y1="363.589" x2="402.651" y2="376.839"/>
					<rect x="389.4" y="350.339" fill="none" stroke="#6D6D6D" stroke-miterlimit="10" width="26.501" height="13.25"/>
					<path fill="none" stroke="#6D6D6D" stroke-miterlimit="10" d="M402.651,376.839"/>
					
						<line fill="none" stroke="#6D6D6D" stroke-width="2" stroke-miterlimit="10" x1="388.9" y1="376.339" x2="416.401" y2="376.339"/>
				</g>
				<g>
					<rect x="416.901" y="350.339" fill="#3C3C3C" stroke="#3C3C3C" stroke-miterlimit="10" width="26.5" height="26.5"/>
					
						<line fill="none" stroke="#6D6D6D" stroke-width="2" stroke-miterlimit="10" x1="430.151" y1="363.589" x2="430.151" y2="376.839"/>
					<rect x="416.901" y="350.339" fill="none" stroke="#6D6D6D" stroke-miterlimit="10" width="26.5" height="13.25"/>
					<path fill="none" stroke="#6D6D6D" stroke-miterlimit="10" d="M430.151,376.839"/>
					
						<line fill="none" stroke="#6D6D6D" stroke-width="2" stroke-miterlimit="10" x1="416.401" y1="376.339" x2="443.901" y2="376.339"/>
				</g>
				<g>
					<rect x="361.9" y="377.559" fill="#3C3C3C" stroke="#3C3C3C" stroke-miterlimit="10" width="26.5" height="26.5"/>
					
						<line fill="none" stroke="#6D6D6D" stroke-width="2" stroke-miterlimit="10" x1="375.15" y1="390.809" x2="375.15" y2="404.059"/>
					<rect x="361.9" y="377.559" fill="none" stroke="#6D6D6D" stroke-miterlimit="10" width="26.5" height="13.25"/>
					<path fill="none" stroke="#6D6D6D" stroke-miterlimit="10" d="M375.15,404.059"/>
					
						<line fill="none" stroke="#6D6D6D" stroke-width="2" stroke-miterlimit="10" x1="361.4" y1="403.559" x2="388.9" y2="403.559"/>
				</g>
				<g>
					<rect x="389.4" y="377.559" fill="#3C3C3C" stroke="#3C3C3C" stroke-miterlimit="10" width="26.501" height="26.5"/>
					
						<line fill="none" stroke="#6D6D6D" stroke-width="2" stroke-miterlimit="10" x1="402.651" y1="390.809" x2="402.651" y2="404.059"/>
					<rect x="389.4" y="377.559" fill="none" stroke="#6D6D6D" stroke-miterlimit="10" width="26.501" height="13.25"/>
					<path fill="none" stroke="#6D6D6D" stroke-miterlimit="10" d="M402.651,404.059"/>
					
						<line fill="none" stroke="#6D6D6D" stroke-width="2" stroke-miterlimit="10" x1="388.9" y1="403.559" x2="416.401" y2="403.559"/>
				</g>
				<g>
					<rect x="416.901" y="377.559" fill="#3C3C3C" stroke="#3C3C3C" stroke-miterlimit="10" width="26.5" height="26.5"/>
					
						<line fill="none" stroke="#6D6D6D" stroke-width="2" stroke-miterlimit="10" x1="430.151" y1="390.809" x2="430.151" y2="404.059"/>
					<rect x="416.901" y="377.559" fill="none" stroke="#6D6D6D" stroke-miterlimit="10" width="26.5" height="13.25"/>
					<path fill="none" stroke="#6D6D6D" stroke-miterlimit="10" d="M430.151,404.059"/>
					
						<line fill="none" stroke="#6D6D6D" stroke-width="2" stroke-miterlimit="10" x1="416.401" y1="403.559" x2="443.901" y2="403.559"/>
				</g>
				<g>
					<rect x="444.401" y="350.339" fill="#3C3C3C" stroke="#3C3C3C" stroke-miterlimit="10" width="26.5" height="26.5"/>
					
						<line fill="none" stroke="#6D6D6D" stroke-width="2" stroke-miterlimit="10" x1="457.651" y1="363.589" x2="457.651" y2="376.839"/>
					<rect x="444.401" y="350.339" fill="none" stroke="#6D6D6D" stroke-miterlimit="10" width="26.5" height="13.25"/>
					<path fill="none" stroke="#6D6D6D" stroke-miterlimit="10" d="M457.651,376.839"/>
					
						<line fill="none" stroke="#6D6D6D" stroke-width="2" stroke-miterlimit="10" x1="443.901" y1="376.339" x2="471.401" y2="376.339"/>
				</g>
				<g>
					<rect x="471.901" y="350.339" fill="#3C3C3C" stroke="#3C3C3C" stroke-miterlimit="10" width="26.5" height="26.5"/>
					
						<line fill="none" stroke="#6D6D6D" stroke-width="2" stroke-miterlimit="10" x1="485.151" y1="363.589" x2="485.151" y2="376.839"/>
					<rect x="471.901" y="350.339" fill="none" stroke="#6D6D6D" stroke-miterlimit="10" width="26.5" height="13.25"/>
					<path fill="none" stroke="#6D6D6D" stroke-miterlimit="10" d="M485.151,376.839"/>
					
						<line fill="none" stroke="#6D6D6D" stroke-width="2" stroke-miterlimit="10" x1="471.401" y1="376.339" x2="498.901" y2="376.339"/>
				</g>
				<g>
					<rect x="499.401" y="350.339" fill="#3C3C3C" stroke="#3C3C3C" stroke-miterlimit="10" width="26.5" height="26.5"/>
					
						<line fill="none" stroke="#6D6D6D" stroke-width="2" stroke-miterlimit="10" x1="512.651" y1="363.589" x2="512.651" y2="376.839"/>
					<rect x="499.401" y="350.339" fill="none" stroke="#6D6D6D" stroke-miterlimit="10" width="26.5" height="13.25"/>
					<path fill="none" stroke="#6D6D6D" stroke-miterlimit="10" d="M512.651,376.839"/>
					
						<line fill="none" stroke="#6D6D6D" stroke-width="2" stroke-miterlimit="10" x1="498.901" y1="376.339" x2="526.401" y2="376.339"/>
				</g>
				<g>
					<rect x="444.401" y="377.559" fill="#3C3C3C" stroke="#3C3C3C" stroke-miterlimit="10" width="26.5" height="26.5"/>
					
						<line fill="none" stroke="#6D6D6D" stroke-width="2" stroke-miterlimit="10" x1="457.651" y1="390.809" x2="457.651" y2="404.059"/>
					<rect x="444.401" y="377.559" fill="none" stroke="#6D6D6D" stroke-miterlimit="10" width="26.5" height="13.25"/>
					<path fill="none" stroke="#6D6D6D" stroke-miterlimit="10" d="M457.651,404.059"/>
					
						<line fill="none" stroke="#6D6D6D" stroke-width="2" stroke-miterlimit="10" x1="443.901" y1="403.559" x2="471.401" y2="403.559"/>
				</g>
				<g>
					<rect x="471.901" y="377.559" fill="#3C3C3C" stroke="#3C3C3C" stroke-miterlimit="10" width="26.5" height="26.5"/>
					
						<line fill="none" stroke="#6D6D6D" stroke-width="2" stroke-miterlimit="10" x1="485.151" y1="390.809" x2="485.151" y2="404.059"/>
					<rect x="471.901" y="377.559" fill="none" stroke="#6D6D6D" stroke-miterlimit="10" width="26.5" height="13.25"/>
					<path fill="none" stroke="#6D6D6D" stroke-miterlimit="10" d="M485.151,404.059"/>
					
						<line fill="none" stroke="#6D6D6D" stroke-width="2" stroke-miterlimit="10" x1="471.401" y1="403.559" x2="498.901" y2="403.559"/>
				</g>
				<g>
					<rect x="499.401" y="377.559" fill="#3C3C3C" stroke="#3C3C3C" stroke-miterlimit="10" width="26.5" height="26.5"/>
					
						<line fill="none" stroke="#6D6D6D" stroke-width="2" stroke-miterlimit="10" x1="512.651" y1="390.809" x2="512.651" y2="404.059"/>
					<rect x="499.401" y="377.559" fill="none" stroke="#6D6D6D" stroke-miterlimit="10" width="26.5" height="13.25"/>
					<path fill="none" stroke="#6D6D6D" stroke-miterlimit="10" d="M512.651,404.059"/>
					
						<line fill="none" stroke="#6D6D6D" stroke-width="2" stroke-miterlimit="10" x1="498.901" y1="403.559" x2="526.401" y2="403.559"/>
				</g>
			</g>
		</g>
	</g>
	<g>
		<g>
			<g>
				<g>
					<path fill="none" stroke="#7F7F7F" stroke-width="7" stroke-linecap="round" stroke-miterlimit="10" d="M178.778,218.884
						c0,0-40.73,6.771-55.223,3.903"/>
					<path fill="none" stroke="#7F7F7F" stroke-width="7.6584" stroke-linecap="round" stroke-miterlimit="10" d="M217.054,269.219
						c0,0,5.053,43.093,16.9,60.758"/>
					<path fill="none" stroke="#7F7F7F" stroke-width="7.6584" stroke-linecap="round" stroke-miterlimit="10" d="M189.242,262.741
						c0,0-17.077,28.837-5.062,57.311"/>
					<path fill="#FF4069" d="M172.845,208.564c0,0,4.227,36.675-4.666,51.181c0,0,25.524,25.476,65.863,18.276
						c0,0,14.123-26.039-1.457-63.227C232.585,214.795,206.188,191.242,172.845,208.564z"/>
					<g>
						
							<ellipse transform="matrix(0.3831 -0.9237 0.9237 0.3831 -3.05 293.5585)" fill="#F7E29F" cx="218.253" cy="149.063" rx="73.865" ry="74.918"/>
						<circle fill="#464849" stroke="#464849" stroke-width="2.1104" stroke-miterlimit="10" cx="176.075" cy="136.148" r="3.166"/>
						<circle fill="#464849" stroke="#464849" stroke-width="2.1104" stroke-miterlimit="10" cx="237.69" cy="158.445" r="3.165"/>
						<path fill="#E5E5E5" d="M178.147,135.017c-0.334,0.48-0.99,0.597-1.47,0.265c-0.476-0.332-0.595-0.991-0.263-1.47
							s0.99-0.593,1.467-0.262C178.361,133.881,178.479,134.539,178.147,135.017z"/>
						<circle fill="#E5E5E5" cx="238.895" cy="156.714" r="1.055"/>
						<path fill="none" stroke="#FF7882" stroke-width="2.5682" stroke-linecap="round" stroke-miterlimit="10" d="M196.485,159.241
							c-1.27,3.328,1.747,7.568,6.738,9.472c4.991,1.907,10.065,0.753,11.336-2.574"/>
					</g>
					<path fill="none" stroke="#7F7F7F" stroke-width="7" stroke-linecap="round" stroke-miterlimit="10" d="M224.139,232.014
						c0,0,21.163,29.399,20.188,56.816"/>
				</g>
			</g>
		</g>
		<g>
			<path fill="#DD6C4A" d="M126.077,2.248v85.609c0,0-24.361,11.832-61.249,11.832C27.94,99.689,0.1,86.465,0.1,86.465
				s13.224-18.096,13.224-43.152c0-25.057-7.208-35.009-7.208-35.009s20.433,13.433,56.973,13.433S126.077,2.248,126.077,2.248z"/>
			<line fill="none" stroke="#7A5136" stroke-width="5" stroke-miterlimit="10" x1="126.077" y1="0.444" x2="126.077" y2="336"/>
			<path fill="none" d="M-8.245,56.049c0,0,10.988,11.667,60.85,15.333c26.746,1.967,60.852-9.619,60.852-9.619"/>
			
				<text transform="matrix(0.9897 0.1433 -0.1433 0.9897 23.0889 67.8662)" fill="#FFFFFF" font-family="'OpenSans'" font-size="30">B</text>
			
				<text transform="matrix(0.9897 0.1433 -0.1433 0.9897 46.6406 71.1533)" fill="#FFFFFF" font-family="'OpenSans'" font-size="30">E</text>
			
				<text transform="matrix(0.9897 0.1433 -0.1433 0.9897 68.7446 71.3926)" fill="#FFFFFF" font-family="'OpenSans'" font-size="30">T</text>
			
				<text transform="matrix(0.9897 0.1433 -0.1433 0.9897 89.5249 68.2646)" fill="#FFFFFF" font-family="'OpenSans'" font-size="30">A</text>
		</g>
	</g>
</g>
<g id="hover">
</g>
</svg>
