<?xml version="1.0" encoding="utf-8"?>
<!-- Generator: Adobe Illustrator 17.0.0, SVG Export Plug-In . SVG Version: 6.00 Build 0)  -->
<!DOCTYPE svg PUBLIC "-//W3C//DTD SVG 1.1//EN" "http://www.w3.org/Graphics/SVG/1.1/DTD/svg11.dtd">
<svg version="1.1" xmlns="http://www.w3.org/2000/svg" xmlns:xlink="http://www.w3.org/1999/xlink" x="0px" y="0px" width="320px"
	 height="184px" viewBox="0 0 320 184" enable-background="new 0 0 320 184" xml:space="preserve">
<symbol  id="arrow-pastas" viewBox="-4.354 -1.707 8.707 5.061">
	<g>
		<polyline fill="none" stroke="#3C3C3C" stroke-miterlimit="10" points="-4,3 -0.001,-1 4,3 		"/>
	</g>
</symbol>
<symbol  id="arrow2" viewBox="-4.354 -2.53 8.707 5.061">
	<g>
		<g>
			<polyline fill="none" stroke="#F5F5F5" stroke-miterlimit="10" points="-4,2.177 -0.001,-1.823 4,2.177 			"/>
		</g>
	</g>
</symbol>
<g id="Camada_2">
</g>
<g id="Camada_6" display="none">
</g>
<g id="Camada_6_cópia" display="none">
</g>
<g id="Camada_7" display="none">
</g>
<g id="Camada_9" display="none">
</g>
<g id="Camada_5">
</g>
<g id="Camada_1">
	<g>
		<g>
			<g>
				<g>
					<g>
						<polygon fill="#FF3E86" points="278,48.436 189,80.154 175.878,71.471 265.282,39.652 						"/>
					</g>
				</g>
			</g>
		</g>
	</g>
	<g>
		<polygon fill="#EEF0F1" points="277.993,48.438 231.587,65.416 232.137,64.781 189,80.154 175.878,71.471 248.814,45.513 
			259.434,33.244 255.436,34.128 169.749,64.666 156.627,55.983 246.031,24.164 247.618,25.26 258.182,9.853 149.036,49.178 
			135.914,40.495 133.164,144.583 176.247,129.352 278,48.436 		"/>
		<polygon fill="#EEF0F1" points="278,48.436 278,48.436 278,48.436 		"/>
	</g>
	<g>
		<g>
			<g>
				<g>
					<g>
						<polygon fill="#6FC9DA" points="258.749,32.947 169.749,64.666 156.627,55.983 246.031,24.163 						"/>
					</g>
				</g>
			</g>
		</g>
	</g>
	<g>
		<g>
			<g>
				<g>
					<g>
						<polygon fill="#0ADBA4" points="258.182,9.853 149.036,49.178 135.914,40.495 245.464,1.07 						"/>
					</g>
				</g>
			</g>
		</g>
	</g>
	<g>
		<g>
			<g>
				<g>
					<g>
						<polygon fill="#FFFFFF" points="164.883,155.218 122.025,170.393 114.704,165.548 157.787,150.317 						"/>
					</g>
				</g>
			</g>
		</g>
	</g>
	<g>
		<g>
			<g>
				<g>
					<g>
						<g>
							<path fill="#464849" d="M245.035,139.615c1.803,1.26,1.582,2.893-0.492,3.627l-105.694,37.423
								c-2.074,0.734-5.252,0.313-7.063-0.937l-56.772-39.181c-1.811-1.25-1.595-2.872,0.479-3.605l106.288-37.576
								c2.074-0.733,5.247-0.302,7.05,0.959L245.035,139.615z"/>
							<path fill="none" stroke="#D0D6D8" stroke-width="3" stroke-miterlimit="10" d="M245.035,139.615
								c1.803,1.26,1.582,2.893-0.492,3.627l-105.694,37.423c-2.074,0.734-5.252,0.313-7.063-0.937l-56.772-39.181
								c-1.811-1.25-1.595-2.872,0.479-3.605l106.288-37.576c2.074-0.733,5.247-0.302,7.05,0.959L245.035,139.615z"/>
						</g>
					</g>
				</g>
			</g>
		</g>
	</g>
	<g>
		<g>
			<g>
				<g>
					<g>
						<polygon fill="#FFFFFF" points="140.313,127.858 97.455,143.033 93.978,140.835 137.061,125.604 						"/>
					</g>
				</g>
			</g>
		</g>
	</g>
	<g>
		<g>
			<g>
				<g>
					<g>
						<polygon fill="#FFFFFF" points="179.499,131.606 136.641,146.781 133.164,144.583 176.247,129.352 						"/>
					</g>
				</g>
			</g>
		</g>
	</g>
	<g>
		<g>
			<g>
				<g>
					<g>
						<polygon fill="#FFFFFF" points="171.815,151.538 128.957,166.713 125.48,164.514 168.563,149.283 						"/>
					</g>
				</g>
			</g>
		</g>
	</g>
	<polygon fill="#3C3C3C" points="200,110.479 184.081,101 134,118 133.164,144.583 176.247,129.352 	"/>
	<polygon fill="#6D6D6D" points="133.542,130.256 140.313,127.858 137.061,125.604 133.633,126.816 	"/>
</g>
<g id="animacao">
</g>
<g id="Camada_4">
</g>
</svg>
