<?xml version="1.0" encoding="utf-8"?>
<!-- Generator: Adobe Illustrator 17.0.0, SVG Export Plug-In . SVG Version: 6.00 Build 0)  -->
<!DOCTYPE svg PUBLIC "-//W3C//DTD SVG 1.1//EN" "http://www.w3.org/Graphics/SVG/1.1/DTD/svg11.dtd">
<svg version="1.1" xmlns="http://www.w3.org/2000/svg" xmlns:xlink="http://www.w3.org/1999/xlink" x="0px" y="0px" width="320px"
	 height="184px" viewBox="0 0 320 184" enable-background="new 0 0 320 184" xml:space="preserve">
<symbol  id="arrow-pastas" viewBox="-4.354 -1.707 8.707 5.061">
	<g>
		<polyline fill="none" stroke="#3C3C3C" stroke-miterlimit="10" points="-4,3 -0.001,-1 4,3 		"/>
	</g>
</symbol>
<symbol  id="arrow2" viewBox="-4.354 -2.53 8.707 5.061">
	<g>
		<g>
			<polyline fill="none" stroke="#F5F5F5" stroke-miterlimit="10" points="-4,2.177 -0.001,-1.823 4,2.177 			"/>
		</g>
	</g>
</symbol>
<g id="Camada_2">
</g>
<g id="Camada_6" display="none">
</g>
<g id="Camada_6_cópia" display="none">
</g>
<g id="Camada_7" display="none">
</g>
<g id="Camada_9" display="none">
</g>
<g id="Camada_5">
</g>
<g id="Camada_1">
	<rect y="100" fill="#F1F3F3" width="320" height="84"/>
	<g>
		<g>
			<path fill="#FFFFFF" stroke="#D0D6D8" stroke-width="3" stroke-linejoin="round" stroke-miterlimit="10" d="M281.474,105.424
				c0,13.092,1.311,41.901-23.706,41.901s-23.706-28.808-23.706-41.901"/>
			<path fill="#FFFFFF" stroke="#D0D6D8" stroke-width="3" stroke-linejoin="round" stroke-miterlimit="10" d="M281.924,109.879
				c-0.148,0-0.292,0.017-0.438,0.022c-0.003,2.237-0.038,4.692-0.179,7.249c0.205-0.024,0.406-0.062,0.618-0.062
				c2.903,0,5.256,2.353,5.256,5.256s-2.353,5.256-5.256,5.256c-0.662,0-1.29-0.136-1.873-0.359
				c-0.505,2.39-1.186,4.724-2.104,6.908c1.25,0.421,2.585,0.659,3.977,0.659c6.884,0,12.464-5.58,12.464-12.464
				C294.387,115.46,288.807,109.879,281.924,109.879z"/>
			<path fill="#D0D6D8" d="M270.947,143.46c-3.276,2.403-7.558,3.865-13.179,3.865c-7.441,0-12.54-2.56-16.05-6.486
				c-0.111,0.205-0.227,0.406-0.31,0.626c-1.921,5.072,4.522,12.214,14.391,15.953c9.87,3.739,19.428,2.659,21.349-2.412
				C278.461,151.541,275.866,147.112,270.947,143.46z"/>
			
				<ellipse fill="#FFFFFF" stroke="#E9EBEC" stroke-width="3" stroke-miterlimit="10" cx="257.768" cy="105.424" rx="23.706" ry="11.853"/>
			<path fill="#FFFFFF" stroke="#D0D6D8" stroke-width="3" stroke-linejoin="round" stroke-miterlimit="10" d="M253.781,60.488
				c0,0,3.766,1.692,3.766,8.257c0,6.565-6.999,9.132-1.51,15.525"/>
			<path fill="#FFFFFF" stroke="#D0D6D8" stroke-width="3" stroke-linejoin="round" stroke-miterlimit="10" d="M262.729,61.015
				c0,0,3.766,1.692,3.766,8.257c0,6.565-6.999,9.132-1.51,15.525"/>
		</g>
		
			<ellipse fill="#FFFFFF" stroke="#D0D6D8" stroke-width="3" stroke-linejoin="round" stroke-miterlimit="10" cx="257.768" cy="105.424" rx="23.706" ry="11.853"/>
	</g>
	<ellipse fill="#464849" cx="257.768" cy="108.277" rx="19.701" ry="9"/>
	<g>
		<g>
			<g>
				<path fill="#E8EBEC" d="M189,99c0,3.3-2.7,6-6,6H61c-3.3,0-6-2.7-6-6V33c0-3.3,2.7-6,6-6h122c3.3,0,6,2.7,6,6V99z"/>
			</g>
		</g>
		<g>
			<g>
				<path fill="#FFFFFF" d="M53,113.5c-4.136,0-7.5-3.364-7.5-7.5V25c0-4.136,3.364-7.5,7.5-7.5h138c4.136,0,7.5,3.364,7.5,7.5v81
					c0,4.136-3.364,7.5-7.5,7.5H53z M61,28.5c-2.481,0-4.5,2.019-4.5,4.5v66c0,2.481,2.019,4.5,4.5,4.5h122
					c2.481,0,4.5-2.019,4.5-4.5V33c0-2.481-2.019-4.5-4.5-4.5H61z"/>
			</g>
			<g>
				<path fill="#D0D6D8" d="M191,19c3.3,0,6,2.7,6,6v81c0,3.3-2.7,6-6,6H53c-3.3,0-6-2.7-6-6V25c0-3.3,2.7-6,6-6H191 M61,105h122
					c3.3,0,6-2.7,6-6V33c0-3.3-2.7-6-6-6H61c-3.3,0-6,2.7-6,6v66C55,102.3,57.7,105,61,105 M191,16H53c-4.963,0-9,4.037-9,9v81
					c0,4.963,4.037,9,9,9h138c4.963,0,9-4.037,9-9V25C200,20.037,195.963,16,191,16L191,16z M61,102c-1.654,0-3-1.346-3-3V33
					c0-1.654,1.346-3,3-3h122c1.654,0,3,1.346,3,3v66c0,1.654-1.346,3-3,3H61L61,102z"/>
			</g>
		</g>
		<g>
			<g>
				<path fill="#FFFFFF" d="M30.738,158.153c-2.11,0-3.824-0.833-4.701-2.285c-0.878-1.452-0.817-3.356,0.164-5.225l16.608-31.618
					c1.801-3.429,6.245-6.114,10.118-6.114h138.297c3.873,0,8.317,2.686,10.118,6.114l16.609,31.619
					c0.981,1.868,1.041,3.772,0.163,5.225c-0.877,1.451-2.591,2.284-4.701,2.284H30.738z"/>
				<g>
					<path fill="#D0D6D8" d="M191.225,114.411c3.3,0,7.255,2.39,8.79,5.312l16.609,31.618c1.535,2.921,0.09,5.312-3.21,5.312H30.739
						c-3.3,0-4.744-2.39-3.21-5.312l16.609-31.618c1.535-2.921,5.49-5.312,8.79-5.312H191.225 M191.225,111.411H52.928
						c-4.381,0-9.409,3.038-11.446,6.917l-16.609,31.619c-1.232,2.344-1.275,4.786-0.12,6.698c1.156,1.912,3.337,3.009,5.985,3.009
						h182.675c2.648,0,4.83-1.097,5.986-3.009c1.155-1.912,1.112-4.354-0.12-6.698l-16.609-31.618
						C200.633,114.449,195.606,111.411,191.225,111.411L191.225,111.411z"/>
				</g>
			</g>
		</g>
		<g>
			<path fill="#D0D6D8" d="M206.811,124.032c-1.788-2.774-4.135-5.043-5.216-5.043s-0.71,2.39,0.825,5.312l14.204,27.041
				c1.535,2.921,0.09,5.312-3.21,5.312H34.92c-3.3,0-6.815,1.802-7.81,4.004s0.89,4.004,4.19,4.004H227
				c3.3,0,4.537-2.269,2.749-5.043L206.811,124.032z"/>
		</g>
		<rect x="52.472" y="108.054" fill="#FFFFFF" width="139.208" height="9.289"/>
		<rect x="64" y="111" fill="#D0D6D8" width="116" height="2"/>
		<path fill="#FFFFFF" stroke="#6FC9DA" stroke-width="5" stroke-miterlimit="10" d="M154.876,73.15
			c0-7.473-5.936-13.547-13.348-13.798c-2.355-8.433-10.09-14.622-19.274-14.622c-7.678,0-14.343,4.326-17.7,10.671
			c-0.365-0.024-0.728-0.055-1.099-0.055c-8.734,0-15.814,7.08-15.814,15.813c0,8.386,6.531,15.228,14.782,15.762l40.952-0.158
			C149.902,85.657,154.876,79.991,154.876,73.15z"/>
	</g>
</g>
<g id="animacao">
</g>
<g id="Camada_4">
</g>
</svg>
