<?xml version="1.0" encoding="utf-8"?>
<!-- Generator: Adobe Illustrator 17.0.0, SVG Export Plug-In . SVG Version: 6.00 Build 0)  -->
<!DOCTYPE svg PUBLIC "-//W3C//DTD SVG 1.1//EN" "http://www.w3.org/Graphics/SVG/1.1/DTD/svg11.dtd">
<svg version="1.1" xmlns="http://www.w3.org/2000/svg" xmlns:xlink="http://www.w3.org/1999/xlink" x="0px" y="0px" width="320px"
	 height="184px" viewBox="0 0 320 184" enable-background="new 0 0 320 184" xml:space="preserve">
<symbol  id="arrow-pastas" viewBox="-4.354 -1.707 8.707 5.061">
	<g>
		<polyline fill="none" stroke="#3C3C3C" stroke-miterlimit="10" points="-4,3 -0.001,-1 4,3 		"/>
	</g>
</symbol>
<symbol  id="arrow2" viewBox="-4.354 -2.53 8.707 5.061">
	<g>
		<g>
			<polyline fill="none" stroke="#F5F5F5" stroke-miterlimit="10" points="-4,2.177 -0.001,-1.823 4,2.177 			"/>
		</g>
	</g>
</symbol>
<g id="Camada_2">
</g>
<g id="Camada_6" display="none">
</g>
<g id="Camada_6_cópia" display="none">
</g>
<g id="Camada_7" display="none">
</g>
<g id="Camada_9" display="none">
</g>
<g id="Camada_5">
</g>
<g id="Camada_1">
</g>
<g id="animacao">
</g>
<g id="Camada_4">
	<path fill="#3C3C3C" d="M222.519,69.795c-7.3-26.125-31.272-45.295-59.74-45.295c-23.798,0-44.456,13.401-54.86,33.056
		c-1.13-0.075-2.255-0.169-3.405-0.169c-27.07,0-49.014,21.931-49.014,48.985c0,25.977,20.621,46.473,46.195,48.128H201.5V142h34
		v10.755c16.689-5.763,28.391-21.479,28.391-40.216C263.891,89.388,245.494,70.574,222.519,69.795z"/>
	<g>
		<rect x="83" y="70" fill="#FFFFFF" width="51" height="4"/>
		<rect x="90" y="85" fill="#FFFFFF" width="66" height="4"/>
		<rect x="87" y="100" fill="#FFFFFF" width="36" height="4"/>
		<rect x="139" y="70" fill="#6FC9DA" width="38" height="4"/>
		<rect x="162.032" y="85" fill="#6FC9DA" width="40" height="4"/>
		<rect x="128" y="100" fill="#6FC9DA" width="36" height="4"/>
		<rect x="148" y="115" fill="#6FC9DA" width="30" height="4"/>
		<rect x="148" y="130" fill="#6FC9DA" width="29" height="4"/>
		<rect x="92" y="115" fill="#FFFFFF" width="49" height="4"/>
		<rect x="92" y="130" fill="#FFFFFF" width="49" height="4"/>
	</g>
	<path fill="#6FC9DA" d="M67.744,74h8.869v-4h-4.925C70.296,71.255,68.984,72.595,67.744,74z"/>
	<path fill="#6FC9DA" d="M58.683,89h26.209v-4h-24.49C59.77,86.301,59.2,87.638,58.683,89z"/>
	<path fill="#6FC9DA" d="M55.56,104H82v-4H55.927C55.755,101.319,55.624,102.65,55.56,104z"/>
	<path fill="#6FC9DA" d="M57.203,119H85v-4H56.29C56.538,116.355,56.843,117.689,57.203,119z"/>
	<path fill="#6FC9DA" d="M64.365,134H85v-4H61.792C62.585,131.377,63.442,132.713,64.365,134z"/>
	<g>
		<path fill="#D0D6D8" d="M233.136,136.925v-8.709c0-5.671-5.159-10.285-11.5-10.285h-6c-6.341,0-11.5,4.614-11.5,10.285v8.462
			c-2.525,2.111-4.136,5.281-4.136,8.822v15c0,6.341,5.159,11.5,11.5,11.5h14c6.341,0,11.5-5.159,11.5-11.5v-15
			C237,142.091,235.5,139.033,233.136,136.925z M207.136,128.216c0-4.017,3.813-7.285,8.5-7.285h6c4.687,0,8.5,3.269,8.5,7.285
			v6.769c-1.42-0.628-2.986-0.984-4.636-0.984h-14c-1.545,0-3.017,0.311-4.364,0.866V128.216z"/>
		<g>
			<path fill="#FFFFFF" d="M234,159.429c0,4.714-4.103,8.571-9.118,8.571h-12.765c-5.015,0-9.118-3.857-9.118-8.571v-12.857
				c0-4.714,4.103-8.571,9.118-8.571h12.765c5.015,0,9.118,3.857,9.118,8.571V159.429z"/>
		</g>
		<g>
			<g>
				<path fill="#FFFFFF" d="M221.913,152.868c0,2.608-1.625,4.743-3.611,4.743s-3.611-2.134-3.611-4.743
					c0-2.608,1.625-4.742,3.611-4.742S221.913,150.26,221.913,152.868z"/>
			</g>
			<g>
				<path fill="#D0D6D8" d="M218.302,159.11c-2.818,0-5.111-2.8-5.111-6.242s2.293-6.242,5.111-6.242s5.111,2.8,5.111,6.242
					S221.12,159.11,218.302,159.11z M218.302,149.626c-1.125,0-2.111,1.515-2.111,3.242s0.986,3.242,2.111,3.242
					s2.111-1.515,2.111-3.242S219.427,149.626,218.302,149.626z"/>
			</g>
		</g>
	</g>
	<path fill="#D0D6D8" d="M223.661,68.346C215.686,41.592,190.807,23,162.779,23c-23.277,0-44.537,12.615-55.722,32.993
		c-0.826-0.056-1.675-0.106-2.544-0.106C76.66,55.887,54,78.534,54,106.372c0,26.101,20.908,47.898,47.695,49.628H200v-3
		l-98.208,0.002C76.675,151.378,57,130.896,57,106.372c0-26.184,21.314-47.485,47.514-47.485c0.916,0,1.814,0.062,2.766,0.129
		l1.51,0.104l0.456-0.86C119.777,38.36,140.291,26,162.779,26c27.052,0,51.022,18.175,58.295,44.198l0.295,1.059l1.099,0.037
		c22.387,0.759,39.923,18.875,39.923,41.245c0,17.068-10.271,31.901-25.391,38.047v3.219c16.848-6.306,28.391-22.531,28.391-41.267
		C265.391,88.908,247.149,69.701,223.661,68.346z"/>
</g>
</svg>
