<?xml version="1.0" encoding="utf-8"?>
<!-- Generator: Adobe Illustrator 17.0.0, SVG Export Plug-In . SVG Version: 6.00 Build 0)  -->
<!DOCTYPE svg PUBLIC "-//W3C//DTD SVG 1.1//EN" "http://www.w3.org/Graphics/SVG/1.1/DTD/svg11.dtd">
<svg version="1.1" xmlns="http://www.w3.org/2000/svg" xmlns:xlink="http://www.w3.org/1999/xlink" x="0px" y="0px" width="320px"
	 height="184px" viewBox="0 0 320 184" enable-background="new 0 0 320 184" xml:space="preserve">
<symbol  id="arrow-pastas" viewBox="-4.354 -1.707 8.707 5.061">
	<g>
		<polyline fill="none" stroke="#3C3C3C" stroke-miterlimit="10" points="-4,3 -0.001,-1 4,3 		"/>
	</g>
</symbol>
<symbol  id="arrow2" viewBox="-4.354 -2.53 8.707 5.061">
	<g>
		<g>
			<polyline fill="none" stroke="#F5F5F5" stroke-miterlimit="10" points="-4,2.177 -0.001,-1.823 4,2.177 			"/>
		</g>
	</g>
</symbol>
<g id="Camada_2">
</g>
<g id="Camada_6" display="none">
</g>
<g id="Camada_6_cópia" display="none">
</g>
<g id="Camada_7" display="none">
</g>
<g id="Camada_9" display="none">
</g>
<g id="Camada_5">
</g>
<g id="Camada_1">
	<g>
		<rect x="1" y="14.4" fill="#F1F3F3" width="318" height="56"/>
		<g>
			<path fill="none" stroke="#FF3E86" stroke-width="2" stroke-miterlimit="10" d="M310.781,102.368c0-3.538-2.81-6.414-6.32-6.533
				c-1.115-3.993-4.777-6.923-9.125-6.923c-3.635,0-6.791,2.048-8.38,5.052c-0.173-0.011-0.344-0.026-0.52-0.026
				c-4.135,0-7.487,3.352-7.487,7.487c0,3.97,3.092,7.21,6.999,7.463v0.024h19.389v-0.099
				C308.426,108.289,310.781,105.607,310.781,102.368z"/>
			<g>
				<g>
					<polyline fill="none" stroke="#FF3E86" stroke-width="2" stroke-miterlimit="10" points="291.602,101.304 294.888,104.527 
						298.174,101.304 					"/>
				</g>
				
					<line fill="none" stroke="#FF3E86" stroke-width="2" stroke-miterlimit="10" x1="294.888" y1="104.527" x2="294.888" y2="96.231"/>
			</g>
		</g>
		<g>
			<g>
				<line fill="none" stroke="#D0D6D8" stroke-width="3" stroke-miterlimit="10" x1="319" y1="70.403" x2="1" y2="70.403"/>
			</g>
		</g>
		<g>
			<g>
				<line fill="none" stroke="#D0D6D8" stroke-width="3" stroke-miterlimit="10" x1="319" y1="14.4" x2="1" y2="14.4"/>
			</g>
		</g>
		<g>
			<g>
				<line fill="none" stroke="#D0D6D8" stroke-width="3" stroke-miterlimit="10" x1="1" y1="126.4" x2="319" y2="126.4"/>
			</g>
		</g>
		<g>
			<g>
				<line fill="none" stroke="#D0D6D8" stroke-width="3" stroke-miterlimit="10" x1="1" y1="182.4" x2="319" y2="182.4"/>
			</g>
		</g>
		<g>
			<path fill="#767B7C" d="M12.664,48.391l-2.568-6.384h1.393l1.943,4.824l1.944-4.824h1.392L14.2,48.391H12.664z"/>
			<path fill="#767B7C" d="M23.775,45.788h-5.004c0.032,0.464,0.244,0.838,0.637,1.121c0.392,0.284,0.84,0.427,1.344,0.427
				c0.8,0,1.408-0.252,1.824-0.756l0.768,0.84c-0.688,0.712-1.584,1.067-2.688,1.067c-0.896,0-1.658-0.298-2.287-0.894
				c-0.627-0.596-0.941-1.396-0.941-2.4s0.32-1.802,0.96-2.394s1.394-0.889,2.263-0.889c0.867,0,1.605,0.263,2.213,0.786
				c0.608,0.524,0.912,1.246,0.912,2.166V45.788z M18.771,44.731h3.66c0-0.536-0.168-0.948-0.504-1.236
				c-0.336-0.287-0.75-0.432-1.242-0.432s-0.934,0.15-1.326,0.45C18.968,43.813,18.771,44.219,18.771,44.731z"/>
			<path fill="#767B7C" d="M28.6,43.267c-0.664,0-1.164,0.216-1.5,0.648c-0.336,0.432-0.504,1.012-0.504,1.739v2.736h-1.344v-6.384
				h1.344v1.284c0.217-0.4,0.51-0.729,0.883-0.984c0.371-0.256,0.766-0.388,1.182-0.396l0.012,1.356
				C28.648,43.267,28.624,43.267,28.6,43.267z"/>
			<path fill="#767B7C" d="M34.564,46.483c0,0.608-0.221,1.095-0.66,1.458c-0.44,0.364-1.004,0.546-1.692,0.546
				c-0.464,0-0.946-0.084-1.446-0.252s-0.941-0.403-1.326-0.708l0.648-1.044c0.744,0.561,1.464,0.84,2.16,0.84
				c0.304,0,0.544-0.069,0.72-0.21c0.177-0.14,0.265-0.317,0.265-0.533c0-0.32-0.425-0.608-1.272-0.864
				c-0.063-0.024-0.112-0.04-0.144-0.048c-1.328-0.36-1.992-0.96-1.992-1.801c0-0.592,0.229-1.065,0.689-1.422
				c0.461-0.355,1.059-0.534,1.795-0.534c0.735,0,1.432,0.217,2.088,0.648l-0.504,0.996c-0.521-0.344-1.085-0.516-1.693-0.516
				c-0.319,0-0.58,0.058-0.779,0.174c-0.2,0.116-0.3,0.29-0.3,0.521c0,0.208,0.104,0.36,0.312,0.456
				c0.145,0.072,0.346,0.141,0.606,0.204c0.26,0.064,0.489,0.128,0.69,0.192c0.199,0.063,0.394,0.136,0.582,0.216
				c0.188,0.08,0.389,0.191,0.605,0.336C34.348,45.427,34.564,45.876,34.564,46.483z"/>
			<path fill="#767B7C" d="M41.26,48.391h-1.225V47.54c-0.527,0.632-1.235,0.947-2.123,0.947c-0.664,0-1.215-0.188-1.65-0.563
				s-0.654-0.878-0.654-1.506s0.232-1.099,0.696-1.41c0.464-0.312,1.092-0.468,1.884-0.468h1.74v-0.24
				c0-0.848-0.473-1.272-1.416-1.272c-0.592,0-1.208,0.216-1.848,0.648l-0.6-0.84c0.775-0.616,1.655-0.925,2.639-0.925
				c0.752,0,1.367,0.19,1.843,0.57s0.714,0.979,0.714,1.794V48.391z M39.496,41.227c-0.209,0-0.498-0.094-0.871-0.282
				c-0.371-0.188-0.609-0.281-0.713-0.281c-0.264,0-0.4,0.176-0.408,0.527h-0.889c0-0.464,0.094-0.84,0.283-1.128
				c0.188-0.288,0.449-0.432,0.785-0.432c0.217,0,0.516,0.094,0.9,0.282c0.384,0.188,0.636,0.281,0.756,0.281
				c0.24,0,0.359-0.176,0.359-0.527h0.9C40.576,40.708,40.207,41.227,39.496,41.227z M39.916,46.015v-0.54h-1.512
				c-0.969,0-1.453,0.304-1.453,0.912c0,0.312,0.121,0.55,0.36,0.714c0.24,0.164,0.574,0.246,1.003,0.246
				c0.428,0,0.801-0.12,1.121-0.36C39.756,46.748,39.916,46.423,39.916,46.015z"/>
			<path fill="#767B7C" d="M48.472,47.533c-0.64,0.637-1.44,0.954-2.399,0.954c-0.961,0-1.761-0.317-2.4-0.954
				c-0.641-0.636-0.961-1.413-0.961-2.334c0-0.92,0.32-1.697,0.961-2.334c0.64-0.636,1.439-0.954,2.4-0.954
				c0.959,0,1.76,0.318,2.399,0.954c0.64,0.637,0.96,1.414,0.96,2.334C49.432,46.12,49.111,46.897,48.472,47.533z M44.625,46.706
				c0.381,0.388,0.863,0.582,1.447,0.582s1.065-0.194,1.445-0.582c0.38-0.389,0.57-0.891,0.57-1.507c0-0.615-0.19-1.117-0.57-1.506
				c-0.38-0.388-0.861-0.582-1.445-0.582s-1.066,0.194-1.447,0.582c-0.379,0.389-0.569,0.891-0.569,1.506
				C44.056,45.815,44.246,46.317,44.625,46.706z"/>
		</g>
		<g>
			<path fill="#767B7C" d="M70.567,48.487c-0.888,0-1.652-0.302-2.292-0.905c-0.641-0.604-0.961-1.395-0.961-2.37
				c0-0.977,0.334-1.771,1.003-2.382c0.667-0.612,1.481-0.919,2.442-0.919c0.959,0,1.771,0.333,2.436,0.996l-0.792,0.973
				c-0.552-0.48-1.108-0.721-1.668-0.721s-1.046,0.187-1.458,0.559s-0.618,0.852-0.618,1.439s0.204,1.086,0.612,1.494
				s0.91,0.612,1.506,0.612s1.158-0.271,1.686-0.816l0.793,0.864C72.479,48.095,71.583,48.487,70.567,48.487z"/>
			<path fill="#767B7C" d="M77.995,43.267c-0.664,0-1.164,0.216-1.5,0.648c-0.336,0.432-0.504,1.012-0.504,1.739v2.736h-1.344
				v-6.384h1.344v1.284c0.216-0.4,0.511-0.729,0.882-0.984c0.372-0.256,0.766-0.388,1.182-0.396l0.013,1.356
				C78.043,43.267,78.02,43.267,77.995,43.267z"/>
			<path fill="#767B7C" d="M79.495,40.735c-0.168-0.168-0.252-0.367-0.252-0.6s0.084-0.433,0.252-0.601s0.368-0.252,0.6-0.252
				s0.433,0.084,0.601,0.252s0.252,0.368,0.252,0.601s-0.084,0.432-0.252,0.6s-0.369,0.252-0.601,0.252S79.663,40.903,79.495,40.735
				z M80.755,48.391h-1.344v-6.384h1.344V48.391z"/>
			<path fill="#767B7C" d="M87.871,48.391h-1.225V47.54c-0.527,0.632-1.236,0.947-2.124,0.947c-0.664,0-1.214-0.188-1.649-0.563
				c-0.437-0.376-0.654-0.878-0.654-1.506s0.232-1.099,0.695-1.41c0.465-0.312,1.092-0.468,1.885-0.468h1.74v-0.24
				c0-0.848-0.473-1.272-1.416-1.272c-0.593,0-1.209,0.216-1.849,0.648l-0.6-0.84c0.775-0.616,1.655-0.925,2.64-0.925
				c0.752,0,1.366,0.19,1.842,0.57c0.477,0.38,0.715,0.979,0.715,1.794V48.391z M86.526,46.015v-0.54h-1.512
				c-0.968,0-1.452,0.304-1.452,0.912c0,0.312,0.12,0.55,0.359,0.714c0.24,0.164,0.574,0.246,1.003,0.246
				c0.428,0,0.802-0.12,1.122-0.36C86.366,46.748,86.526,46.423,86.526,46.015z"/>
			<path fill="#767B7C" d="M90.234,47.575c-0.6-0.607-0.9-1.407-0.9-2.399s0.309-1.784,0.924-2.376
				c0.617-0.592,1.351-0.889,2.203-0.889c0.852,0,1.537,0.36,2.058,1.08v-3.504h1.344v8.904h-1.344v-0.96
				c-0.496,0.704-1.22,1.056-2.172,1.056C91.539,48.487,90.834,48.183,90.234,47.575z M90.679,45.229
				c0,0.612,0.196,1.11,0.588,1.494s0.853,0.576,1.38,0.576s0.977-0.194,1.344-0.582c0.368-0.388,0.553-0.886,0.553-1.494
				c0-0.607-0.185-1.116-0.553-1.524c-0.367-0.407-0.82-0.611-1.355-0.611c-0.536,0-0.996,0.204-1.381,0.611
				C90.871,44.107,90.679,44.617,90.679,45.229z"/>
			<path fill="#767B7C" d="M102.979,48.391h-1.225V47.54c-0.527,0.632-1.235,0.947-2.123,0.947c-0.664,0-1.215-0.188-1.65-0.563
				s-0.654-0.878-0.654-1.506s0.232-1.099,0.696-1.41c0.464-0.312,1.092-0.468,1.884-0.468h1.74v-0.24
				c0-0.848-0.473-1.272-1.416-1.272c-0.592,0-1.208,0.216-1.848,0.648l-0.6-0.84c0.775-0.616,1.655-0.925,2.639-0.925
				c0.752,0,1.367,0.19,1.843,0.57s0.714,0.979,0.714,1.794V48.391z M101.635,46.015v-0.54h-1.512c-0.969,0-1.453,0.304-1.453,0.912
				c0,0.312,0.121,0.55,0.36,0.714c0.24,0.164,0.574,0.246,1.003,0.246c0.428,0,0.801-0.12,1.121-0.36
				C101.475,46.748,101.635,46.423,101.635,46.015z"/>
			<path fill="#767B7C" d="M114.078,45.788h-5.004c0.032,0.464,0.244,0.838,0.637,1.121c0.392,0.284,0.84,0.427,1.344,0.427
				c0.8,0,1.408-0.252,1.824-0.756l0.768,0.84c-0.688,0.712-1.584,1.067-2.688,1.067c-0.896,0-1.658-0.298-2.287-0.894
				c-0.627-0.596-0.941-1.396-0.941-2.4s0.32-1.802,0.96-2.394s1.394-0.889,2.263-0.889c0.867,0,1.605,0.263,2.213,0.786
				c0.608,0.524,0.912,1.246,0.912,2.166V45.788z M109.074,44.731h3.66c0-0.536-0.168-0.948-0.504-1.236
				c-0.336-0.287-0.75-0.432-1.242-0.432s-0.934,0.15-1.326,0.45C109.271,43.813,109.074,44.219,109.074,44.731z"/>
			<path fill="#767B7C" d="M116.898,44.935v3.456h-1.344v-6.384h1.344v1.164c0.191-0.393,0.482-0.7,0.87-0.924
				c0.388-0.225,0.806-0.337,1.254-0.337c1.009,0,1.692,0.417,2.052,1.248c0.633-0.831,1.42-1.248,2.364-1.248
				c0.72,0,1.302,0.221,1.746,0.66c0.444,0.44,0.666,1.076,0.666,1.908v3.912h-1.345v-3.504c0-1.176-0.487-1.764-1.463-1.764
				c-0.457,0-0.854,0.146-1.194,0.438c-0.341,0.292-0.519,0.718-0.534,1.278v3.552h-1.344v-3.504c0-0.608-0.108-1.054-0.324-1.338
				s-0.557-0.426-1.02-0.426c-0.465,0-0.869,0.153-1.213,0.462C117.07,43.893,116.898,44.343,116.898,44.935z"/>
		</g>
		<g>
			<path fill="#767B7C" d="M168.343,45.463v-3.456h1.344v6.384h-1.344v-1.164c-0.216,0.393-0.514,0.7-0.894,0.924
				c-0.38,0.225-0.79,0.336-1.23,0.336c-0.72,0-1.302-0.22-1.746-0.66c-0.443-0.439-0.666-1.075-0.666-1.907v-3.912h1.345v3.504
				c0,1.176,0.487,1.764,1.464,1.764c0.464,0,0.868-0.153,1.212-0.462C168.171,46.505,168.343,46.055,168.343,45.463z"/>
			<path fill="#767B7C" d="M174.979,43.267c-0.664,0-1.164,0.216-1.5,0.648c-0.336,0.432-0.504,1.012-0.504,1.739v2.736h-1.344
				v-6.384h1.344v1.284c0.217-0.4,0.511-0.729,0.883-0.984c0.371-0.256,0.766-0.388,1.182-0.396l0.012,1.356
				C175.027,43.267,175.003,43.267,174.979,43.267z"/>
			<path fill="#767B7C" d="M177.738,48.391h-1.344v-8.904h1.344V48.391z"/>
		</g>
		<g>
			<path fill="#FF3E86" d="M12.664,103.381l-2.568-6.384h1.393l1.943,4.824l1.944-4.824h1.392l-2.567,6.384H12.664z"/>
			<path fill="#FF3E86" d="M21.316,98.269c0.239-0.327,0.359-0.66,0.359-0.996s-0.128-0.621-0.384-0.857
				c-0.257-0.236-0.581-0.354-0.972-0.354c-0.688,0-1.261,0.353-1.717,1.057l-1.14-0.66c0.368-0.552,0.774-0.968,1.218-1.248
				c0.444-0.28,1.016-0.42,1.717-0.42c0.699,0,1.313,0.222,1.842,0.666c0.527,0.443,0.791,1.05,0.791,1.817
				c0,0.433-0.111,0.845-0.336,1.236c-0.224,0.393-0.636,0.896-1.235,1.512l-1.968,2.004h3.804v1.356H17.56v-1.2l2.544-2.556
				C20.672,99.049,21.076,98.597,21.316,98.269z"/>
		</g>
		<g>
			<path fill="#FF3E86" d="M68.323,95.868c-0.568-0.788-0.853-1.842-0.853-3.162s0.284-2.374,0.853-3.162
				c0.567-0.788,1.424-1.182,2.567-1.182c1.145,0,2,0.394,2.568,1.182s0.852,1.842,0.852,3.162s-0.283,2.374-0.852,3.162
				s-1.424,1.182-2.568,1.182C69.747,97.049,68.891,96.656,68.323,95.868z M69.338,90.438c-0.333,0.575-0.498,1.332-0.498,2.268
				c0,0.937,0.165,1.692,0.498,2.268c0.331,0.576,0.85,0.864,1.553,0.864c0.705,0,1.219-0.286,1.543-0.857
				c0.324-0.572,0.485-1.33,0.485-2.274c0-0.943-0.161-1.702-0.485-2.274c-0.324-0.571-0.838-0.857-1.543-0.857
				C70.188,89.574,69.669,89.862,69.338,90.438z"/>
			<path fill="#FF3E86" d="M75.943,89.826v-1.26h4.908v1.104l-2.028,2.269c0.768,0.023,1.368,0.266,1.8,0.726s0.648,1.01,0.648,1.65
				c0,0.855-0.291,1.527-0.871,2.016s-1.325,0.732-2.237,0.732s-1.804-0.292-2.677-0.876l0.601-1.141
				c0.688,0.48,1.408,0.72,2.16,0.72c0.487,0,0.89-0.113,1.206-0.342c0.316-0.228,0.475-0.556,0.475-0.983s-0.177-0.771-0.529-1.026
				c-0.352-0.256-0.84-0.384-1.463-0.384c-0.312,0-0.612,0.044-0.9,0.132v-1.08l1.943-2.256H75.943z"/>
			<path fill="#FF3E86" d="M92.755,89.664c0.808,0.732,1.212,1.75,1.212,3.054c0,1.305-0.393,2.336-1.176,3.097
				c-0.785,0.76-1.984,1.14-3.6,1.14h-2.785v-8.388h2.881C90.791,88.566,91.947,88.931,92.755,89.664z M92.539,92.754
				c0-1.92-1.101-2.88-3.301-2.88h-1.416v5.748h1.572c1.016,0,1.794-0.242,2.334-0.726C92.269,94.412,92.539,93.698,92.539,92.754z"
				/>
			<path fill="#FF3E86" d="M101.539,94.35h-5.004c0.031,0.464,0.243,0.838,0.635,1.121c0.393,0.284,0.84,0.427,1.345,0.427
				c0.8,0,1.407-0.252,1.823-0.756l0.769,0.84c-0.688,0.712-1.584,1.067-2.688,1.067c-0.896,0-1.658-0.298-2.285-0.894
				c-0.629-0.596-0.942-1.396-0.942-2.4s0.319-1.802,0.96-2.394s1.395-0.889,2.262-0.889c0.868,0,1.606,0.263,2.215,0.786
				c0.607,0.524,0.912,1.246,0.912,2.166V94.35z M96.535,93.294h3.659c0-0.536-0.168-0.948-0.504-1.236
				c-0.336-0.287-0.75-0.432-1.242-0.432c-0.491,0-0.935,0.15-1.325,0.45C96.73,92.376,96.535,92.782,96.535,93.294z"/>
			<path fill="#FF3E86" d="M105.847,97.049c-0.888,0-1.652-0.302-2.292-0.905c-0.641-0.604-0.961-1.395-0.961-2.37
				c0-0.977,0.334-1.771,1.003-2.382c0.667-0.612,1.481-0.919,2.442-0.919c0.959,0,1.771,0.333,2.436,0.996l-0.792,0.973
				c-0.552-0.48-1.108-0.721-1.668-0.721s-1.046,0.187-1.458,0.559s-0.618,0.852-0.618,1.439s0.204,1.086,0.612,1.494
				s0.91,0.612,1.506,0.612s1.158-0.271,1.686-0.816l0.793,0.864C107.758,96.658,106.862,97.049,105.847,97.049z"/>
			<path fill="#FF3E86" d="M116.694,91.841c0.239-0.327,0.36-0.66,0.36-0.996s-0.129-0.621-0.385-0.857s-0.58-0.354-0.972-0.354
				c-0.688,0-1.261,0.353-1.716,1.057l-1.141-0.66c0.368-0.552,0.774-0.968,1.219-1.248c0.443-0.28,1.016-0.42,1.716-0.42
				s1.313,0.222,1.842,0.666c0.528,0.443,0.792,1.05,0.792,1.817c0,0.433-0.112,0.845-0.336,1.236
				c-0.225,0.393-0.637,0.896-1.236,1.512l-1.968,2.004h3.804v1.356h-5.736v-1.2l2.545-2.556
				C116.051,92.622,116.454,92.17,116.694,91.841z"/>
			<path fill="#FF3E86" d="M120.87,95.868c-0.568-0.788-0.853-1.842-0.853-3.162s0.284-2.374,0.853-3.162
				c0.567-0.788,1.424-1.182,2.567-1.182c1.145,0,2,0.394,2.568,1.182s0.852,1.842,0.852,3.162s-0.283,2.374-0.852,3.162
				s-1.424,1.182-2.568,1.182C122.294,97.049,121.438,96.656,120.87,95.868z M121.885,90.438c-0.333,0.575-0.498,1.332-0.498,2.268
				c0,0.937,0.165,1.692,0.498,2.268c0.331,0.576,0.85,0.864,1.553,0.864c0.705,0,1.219-0.286,1.543-0.857
				c0.324-0.572,0.485-1.33,0.485-2.274c0-0.943-0.161-1.702-0.485-2.274c-0.324-0.571-0.838-0.857-1.543-0.857
				C122.734,89.574,122.216,89.862,121.885,90.438z"/>
			<path fill="#FF3E86" d="M127.914,88.566h3.048v8.388h-1.345v-7.128h-1.703V88.566z"/>
			<path fill="#FF3E86" d="M132.689,90.978v-2.412h5.904v1.26l-3.552,7.128h-1.56l3.468-7.104h-2.976v1.128H132.689z"/>
			<path fill="#FF3E86" d="M67.111,102.966h3.048v8.388h-1.345v-7.128h-1.703V102.966z"/>
			<path fill="#FF3E86" d="M73.135,103.434c0.536-0.424,1.208-0.636,2.016-0.636c0.809,0,1.48,0.212,2.017,0.636
				s0.804,0.958,0.804,1.602c0,0.645-0.3,1.215-0.9,1.71c0.809,0.513,1.213,1.232,1.213,2.16c0,0.721-0.288,1.324-0.864,1.812
				s-1.332,0.731-2.269,0.731c-0.936,0-1.691-0.243-2.268-0.731s-0.863-1.092-0.863-1.812c0-0.928,0.403-1.647,1.211-2.16
				c-0.6-0.495-0.899-1.065-0.899-1.71C72.331,104.392,72.6,103.858,73.135,103.434z M73.975,109.872
				c0.368,0.236,0.76,0.354,1.176,0.354s0.809-0.118,1.177-0.354c0.368-0.235,0.552-0.573,0.552-1.014
				c0-0.439-0.176-0.78-0.527-1.02c-0.353-0.24-0.752-0.36-1.201-0.36c-0.447,0-0.848,0.12-1.199,0.36
				c-0.353,0.239-0.528,0.58-0.528,1.02C73.423,109.298,73.607,109.636,73.975,109.872z M74.089,106.056
				c0.3,0.244,0.654,0.366,1.062,0.366c0.408,0,0.763-0.122,1.062-0.366c0.301-0.244,0.45-0.544,0.45-0.9
				c0-0.355-0.149-0.653-0.45-0.894c-0.3-0.24-0.654-0.36-1.062-0.36c-0.407,0-0.762,0.12-1.062,0.36s-0.45,0.538-0.45,0.894
				C73.639,105.512,73.789,105.812,74.089,106.056z"/>
			<path fill="#FF3E86" d="M80.089,108.246c-0.173-0.176-0.259-0.388-0.259-0.636s0.086-0.458,0.259-0.63
				c0.172-0.172,0.382-0.258,0.63-0.258s0.46,0.086,0.637,0.258c0.176,0.172,0.264,0.382,0.264,0.63s-0.088,0.46-0.264,0.636
				c-0.177,0.177-0.389,0.265-0.637,0.265S80.261,108.422,80.089,108.246z M80.089,111.186c-0.173-0.176-0.259-0.388-0.259-0.636
				s0.086-0.458,0.259-0.63c0.172-0.172,0.382-0.259,0.63-0.259s0.46,0.087,0.637,0.259c0.176,0.172,0.264,0.382,0.264,0.63
				s-0.088,0.46-0.264,0.636c-0.177,0.176-0.389,0.264-0.637,0.264S80.261,111.362,80.089,111.186z"/>
			<path fill="#FF3E86" d="M83.406,104.226v-1.26h4.908v1.104l-2.027,2.269c0.768,0.023,1.367,0.266,1.8,0.726
				s0.647,1.01,0.647,1.65c0,0.855-0.289,1.527-0.869,2.016s-1.326,0.732-2.238,0.732s-1.805-0.292-2.676-0.876l0.6-1.141
				c0.688,0.48,1.408,0.72,2.16,0.72c0.488,0,0.89-0.113,1.206-0.342c0.315-0.228,0.474-0.556,0.474-0.983s-0.176-0.771-0.527-1.026
				c-0.353-0.256-0.84-0.384-1.465-0.384c-0.312,0-0.611,0.044-0.899,0.132v-1.08l1.944-2.256H83.406z"/>
			<path fill="#FF3E86" d="M90.979,110.268c-0.568-0.788-0.852-1.842-0.852-3.162s0.283-2.374,0.852-3.162s1.424-1.182,2.568-1.182
				s2,0.394,2.568,1.182s0.852,1.842,0.852,3.162s-0.283,2.374-0.852,3.162s-1.424,1.182-2.568,1.182S91.547,111.056,90.979,110.268
				z M91.993,104.838c-0.333,0.575-0.498,1.332-0.498,2.268c0,0.937,0.165,1.692,0.498,2.268c0.331,0.576,0.85,0.864,1.554,0.864
				s1.219-0.286,1.542-0.857c0.324-0.572,0.485-1.33,0.485-2.274c0-0.943-0.161-1.702-0.485-2.274
				c-0.323-0.571-0.838-0.857-1.542-0.857S92.324,104.262,91.993,104.838z"/>
		</g>
		<g>
			<path fill="#FF3E86" d="M166.867,103.381h-1.536l-2.208-6.384h1.392l1.584,4.824l1.584-4.824h1.393l1.584,4.824l1.584-4.824
				h1.392l-2.208,6.384h-1.536l-1.512-4.368L166.867,103.381z"/>
			<path fill="#FF3E86" d="M177.811,103.381h-1.536l-2.208-6.384h1.393l1.584,4.824l1.584-4.824h1.392l1.584,4.824l1.584-4.824
				h1.393l-2.208,6.384h-1.536l-1.512-4.368L177.811,103.381z"/>
			<path fill="#FF3E86" d="M188.755,103.381h-1.536l-2.208-6.384h1.392l1.584,4.824l1.584-4.824h1.393l1.584,4.824l1.584-4.824
				h1.392l-2.208,6.384h-1.536l-1.512-4.368L188.755,103.381z"/>
		</g>
		<g>
			<path fill="#FF3E86" d="M218.133,96.955l-2.568-6.384h1.392l1.944,4.824l1.944-4.824h1.392l-2.567,6.384H218.133z"/>
			<path fill="#FF3E86" d="M229.244,94.351h-5.004c0.032,0.464,0.244,0.838,0.636,1.121c0.393,0.284,0.84,0.427,1.345,0.427
				c0.8,0,1.407-0.252,1.823-0.756l0.769,0.84c-0.688,0.712-1.584,1.067-2.688,1.067c-0.896,0-1.658-0.298-2.286-0.894
				s-0.941-1.396-0.941-2.4s0.319-1.802,0.96-2.394c0.64-0.592,1.394-0.889,2.262-0.889s1.606,0.263,2.214,0.786
				c0.608,0.524,0.912,1.246,0.912,2.166V94.351z M224.24,93.295h3.66c0-0.536-0.168-0.948-0.504-1.236
				c-0.336-0.287-0.75-0.432-1.242-0.432s-0.935,0.15-1.326,0.45S224.24,92.783,224.24,93.295z"/>
			<path fill="#FF3E86" d="M234.068,91.831c-0.664,0-1.164,0.216-1.5,0.648c-0.336,0.432-0.504,1.012-0.504,1.739v2.736h-1.344
				v-6.384h1.344v1.284c0.216-0.4,0.51-0.729,0.882-0.984s0.766-0.388,1.182-0.396l0.013,1.356
				C234.116,91.831,234.093,91.831,234.068,91.831z"/>
			<path fill="#FF3E86" d="M240.032,95.046c0,0.608-0.22,1.095-0.66,1.458c-0.439,0.364-1.004,0.546-1.691,0.546
				c-0.464,0-0.946-0.084-1.446-0.252s-0.942-0.403-1.326-0.708l0.648-1.044c0.744,0.561,1.464,0.84,2.16,0.84
				c0.304,0,0.544-0.069,0.72-0.21c0.176-0.14,0.264-0.317,0.264-0.533c0-0.32-0.424-0.608-1.271-0.864
				c-0.064-0.024-0.112-0.04-0.145-0.048c-1.328-0.36-1.992-0.96-1.992-1.801c0-0.592,0.23-1.065,0.69-1.422
				c0.46-0.355,1.058-0.534,1.794-0.534s1.432,0.217,2.088,0.648l-0.504,0.996c-0.521-0.344-1.084-0.516-1.692-0.516
				c-0.319,0-0.58,0.058-0.779,0.174c-0.2,0.116-0.3,0.29-0.3,0.521c0,0.208,0.104,0.36,0.312,0.456
				c0.145,0.072,0.346,0.141,0.606,0.204c0.26,0.064,0.489,0.128,0.689,0.192c0.2,0.063,0.395,0.136,0.582,0.216
				c0.188,0.08,0.39,0.191,0.606,0.336C239.816,93.991,240.032,94.439,240.032,95.046z"/>
			<path fill="#FF3E86" d="M246.729,96.955h-1.225v-0.852c-0.527,0.632-1.235,0.947-2.124,0.947c-0.664,0-1.214-0.188-1.649-0.563
				c-0.437-0.376-0.654-0.878-0.654-1.506s0.232-1.099,0.696-1.41c0.464-0.312,1.092-0.468,1.884-0.468h1.74v-0.24
				c0-0.848-0.473-1.272-1.416-1.272c-0.593,0-1.208,0.216-1.849,0.648l-0.6-0.84c0.775-0.616,1.656-0.925,2.64-0.925
				c0.752,0,1.366,0.19,1.843,0.57c0.476,0.38,0.714,0.979,0.714,1.794V96.955z M244.964,89.791c-0.208,0-0.498-0.094-0.87-0.282
				c-0.371-0.188-0.609-0.281-0.714-0.281c-0.264,0-0.399,0.176-0.407,0.527h-0.889c0-0.464,0.094-0.84,0.282-1.128
				c0.188-0.288,0.45-0.432,0.786-0.432c0.216,0,0.516,0.094,0.899,0.282c0.385,0.188,0.637,0.281,0.757,0.281
				c0.239,0,0.359-0.176,0.359-0.527h0.9C246.044,89.271,245.676,89.791,244.964,89.791z M245.384,94.579v-0.54h-1.512
				c-0.968,0-1.452,0.304-1.452,0.912c0,0.312,0.12,0.55,0.36,0.714s0.574,0.246,1.002,0.246s0.802-0.12,1.122-0.36
				C245.224,95.311,245.384,94.987,245.384,94.579z"/>
			<path fill="#FF3E86" d="M253.94,96.096c-0.641,0.637-1.44,0.954-2.4,0.954s-1.76-0.317-2.399-0.954
				c-0.641-0.636-0.961-1.413-0.961-2.334c0-0.92,0.32-1.697,0.961-2.334c0.64-0.636,1.439-0.954,2.399-0.954s1.76,0.318,2.4,0.954
				c0.64,0.637,0.96,1.414,0.96,2.334C254.9,94.683,254.58,95.461,253.94,96.096z M250.094,95.269
				c0.38,0.388,0.862,0.582,1.446,0.582s1.066-0.194,1.446-0.582c0.38-0.389,0.57-0.891,0.57-1.507c0-0.615-0.19-1.117-0.57-1.506
				c-0.38-0.388-0.862-0.582-1.446-0.582s-1.066,0.194-1.446,0.582c-0.38,0.389-0.569,0.891-0.569,1.506
				C249.524,94.379,249.714,94.88,250.094,95.269z"/>
			<path fill="#FF3E86" d="M221.612,111.355h-1.224v-0.852c-0.528,0.632-1.236,0.947-2.124,0.947c-0.664,0-1.214-0.188-1.65-0.563
				c-0.436-0.376-0.653-0.878-0.653-1.506s0.231-1.099,0.695-1.41c0.464-0.312,1.092-0.468,1.884-0.468h1.74v-0.24
				c0-0.848-0.472-1.272-1.416-1.272c-0.592,0-1.208,0.216-1.848,0.648l-0.6-0.84c0.775-0.616,1.655-0.925,2.64-0.925
				c0.752,0,1.366,0.19,1.842,0.57s0.714,0.979,0.714,1.794V111.355z M220.269,108.979v-0.54h-1.512
				c-0.969,0-1.452,0.304-1.452,0.912c0,0.312,0.12,0.55,0.359,0.714c0.24,0.164,0.574,0.246,1.003,0.246
				c0.428,0,0.802-0.12,1.121-0.36C220.108,109.712,220.269,109.387,220.269,108.979z"/>
			<path fill="#FF3E86" d="M225.068,106.051v3.239c0,0.305,0.08,0.547,0.24,0.727c0.159,0.18,0.384,0.27,0.672,0.27
				s0.563-0.14,0.828-0.42l0.552,0.948c-0.473,0.424-0.994,0.636-1.566,0.636s-1.06-0.197-1.464-0.594
				c-0.404-0.396-0.605-0.93-0.605-1.602v-3.204h-0.805v-1.08h0.805v-2.004h1.344v2.004h1.68v1.08H225.068z"/>
			<path fill="#FF3E86" d="M228.513,103.699c-0.168-0.168-0.252-0.367-0.252-0.6s0.084-0.433,0.252-0.601s0.367-0.252,0.6-0.252
				c0.231,0,0.432,0.084,0.6,0.252s0.252,0.368,0.252,0.601s-0.084,0.432-0.252,0.6s-0.368,0.252-0.6,0.252
				C228.88,103.951,228.681,103.867,228.513,103.699z M229.772,111.355h-1.344v-6.384h1.344V111.355z"/>
			<path fill="#FF3E86" d="M233.408,111.355l-2.567-6.384h1.392l1.944,4.824l1.943-4.824h1.393l-2.568,6.384H233.408z"/>
			<path fill="#FF3E86" d="M243.668,111.355h-1.224v-0.852c-0.528,0.632-1.236,0.947-2.124,0.947c-0.664,0-1.214-0.188-1.65-0.563
				c-0.436-0.376-0.653-0.878-0.653-1.506s0.231-1.099,0.695-1.41c0.464-0.312,1.092-0.468,1.884-0.468h1.74v-0.24
				c0-0.848-0.472-1.272-1.416-1.272c-0.592,0-1.208,0.216-1.848,0.648l-0.6-0.84c0.775-0.616,1.655-0.925,2.64-0.925
				c0.752,0,1.366,0.19,1.842,0.57s0.714,0.979,0.714,1.794V111.355z M242.324,108.979v-0.54h-1.512
				c-0.969,0-1.452,0.304-1.452,0.912c0,0.312,0.12,0.55,0.359,0.714c0.24,0.164,0.574,0.246,1.003,0.246
				c0.428,0,0.802-0.12,1.121-0.36C242.164,109.712,242.324,109.387,242.324,108.979z"/>
		</g>
		<g>
			<path fill="none" stroke="#767B7C" stroke-width="2" stroke-miterlimit="10" d="M310.781,157.536c0-3.538-2.81-6.414-6.32-6.533
				c-1.115-3.993-4.777-6.923-9.125-6.923c-3.635,0-6.791,2.048-8.38,5.052c-0.173-0.012-0.344-0.026-0.52-0.026
				c-4.135,0-7.487,3.352-7.487,7.487c0,3.97,3.092,7.21,6.999,7.463v0.024h19.389v-0.099
				C308.426,163.457,310.781,160.775,310.781,157.536z"/>
			<g>
				<g>
					<g>
						<polyline fill="none" stroke="#767B7C" stroke-width="2" stroke-miterlimit="10" points="291.602,156.472 294.888,159.695 
							298.174,156.472 						"/>
					</g>
					
						<line fill="none" stroke="#767B7C" stroke-width="2" stroke-miterlimit="10" x1="294.888" y1="159.695" x2="294.888" y2="151.398"/>
				</g>
			</g>
		</g>
		<g>
			<g>
				<path fill="#767B7C" d="M12.664,159.549l-2.568-6.384h1.393l1.943,4.824l1.944-4.824h1.392l-2.567,6.384H12.664z"/>
				<path fill="#767B7C" d="M17.212,151.162h3.048v8.388h-1.344v-7.128h-1.704V151.162z"/>
			</g>
		</g>
		<g>
			<path fill="#767B7C" d="M68.323,152.036c-0.568-0.788-0.853-1.842-0.853-3.162s0.284-2.374,0.853-3.162
				c0.567-0.788,1.424-1.182,2.567-1.182c1.145,0,2,0.394,2.568,1.182s0.852,1.842,0.852,3.162s-0.283,2.374-0.852,3.162
				s-1.424,1.182-2.568,1.182C69.747,153.217,68.891,152.824,68.323,152.036z M69.338,146.606c-0.333,0.575-0.498,1.332-0.498,2.268
				c0,0.937,0.165,1.692,0.498,2.268c0.331,0.576,0.85,0.864,1.553,0.864c0.705,0,1.219-0.286,1.543-0.857
				c0.324-0.572,0.485-1.33,0.485-2.274c0-0.943-0.161-1.702-0.485-2.274c-0.324-0.571-0.838-0.857-1.543-0.857
				C70.188,145.742,69.669,146.03,69.338,146.606z"/>
			<path fill="#767B7C" d="M79.471,148.009c0.24-0.327,0.36-0.66,0.36-0.996s-0.128-0.621-0.384-0.857s-0.58-0.354-0.973-0.354
				c-0.688,0-1.26,0.353-1.715,1.057l-1.141-0.66c0.367-0.552,0.773-0.968,1.218-1.248s1.017-0.42,1.716-0.42
				c0.7,0,1.314,0.222,1.842,0.666c0.528,0.443,0.793,1.05,0.793,1.817c0,0.433-0.113,0.845-0.336,1.236
				c-0.225,0.393-0.637,0.896-1.236,1.512l-1.969,2.004h3.805v1.356h-5.736v-1.2l2.545-2.556
				C78.827,148.79,79.23,148.337,79.471,148.009z"/>
			<path fill="#767B7C" d="M92.887,145.832c0.808,0.732,1.212,1.75,1.212,3.054c0,1.305-0.392,2.336-1.177,3.097
				c-0.783,0.76-1.983,1.14-3.6,1.14h-2.783v-8.388h2.879C90.922,144.734,92.078,145.099,92.887,145.832z M92.67,148.921
				c0-1.92-1.1-2.88-3.299-2.88h-1.416v5.748h1.571c1.017,0,1.794-0.242,2.334-0.726C92.4,150.58,92.67,149.866,92.67,148.921z"/>
			<path fill="#767B7C" d="M101.671,150.518h-5.004c0.032,0.464,0.243,0.838,0.636,1.121c0.393,0.284,0.84,0.427,1.344,0.427
				c0.801,0,1.408-0.252,1.824-0.756l0.768,0.84c-0.688,0.712-1.584,1.067-2.688,1.067c-0.896,0-1.658-0.298-2.286-0.894
				s-0.942-1.396-0.942-2.4s0.32-1.802,0.961-2.394c0.64-0.592,1.394-0.889,2.262-0.889c0.867,0,1.605,0.263,2.214,0.786
				c0.608,0.524,0.912,1.246,0.912,2.166V150.518z M96.667,149.462h3.659c0-0.536-0.168-0.948-0.504-1.236
				c-0.336-0.287-0.75-0.432-1.242-0.432c-0.491,0-0.934,0.15-1.325,0.45S96.667,148.95,96.667,149.462z"/>
			<path fill="#767B7C" d="M105.979,153.217c-0.888,0-1.652-0.302-2.291-0.905c-0.641-0.604-0.961-1.395-0.961-2.37
				c0-0.977,0.334-1.771,1.002-2.382c0.668-0.612,1.482-0.919,2.442-0.919s1.772,0.333,2.437,0.996l-0.793,0.973
				c-0.552-0.48-1.107-0.721-1.668-0.721c-0.56,0-1.046,0.187-1.457,0.559c-0.412,0.372-0.619,0.852-0.619,1.439
				s0.205,1.086,0.612,1.494c0.408,0.408,0.91,0.612,1.507,0.612c0.596,0,1.157-0.271,1.686-0.816l0.792,0.864
				C107.891,152.826,106.994,153.217,105.979,153.217z"/>
			<path fill="#767B7C" d="M116.826,148.009c0.24-0.327,0.36-0.66,0.36-0.996s-0.128-0.621-0.384-0.857s-0.58-0.354-0.973-0.354
				c-0.688,0-1.26,0.353-1.715,1.057l-1.141-0.66c0.367-0.552,0.773-0.968,1.218-1.248s1.017-0.42,1.716-0.42
				c0.7,0,1.314,0.222,1.842,0.666c0.528,0.443,0.793,1.05,0.793,1.817c0,0.433-0.113,0.845-0.336,1.236
				c-0.225,0.393-0.637,0.896-1.236,1.512l-1.969,2.004h3.805v1.356h-5.736v-1.2l2.545-2.556
				C116.183,148.79,116.586,148.337,116.826,148.009z"/>
			<path fill="#767B7C" d="M121.002,152.036c-0.568-0.788-0.852-1.842-0.852-3.162s0.283-2.374,0.852-3.162s1.424-1.182,2.568-1.182
				s2,0.394,2.568,1.182s0.852,1.842,0.852,3.162s-0.283,2.374-0.852,3.162s-1.424,1.182-2.568,1.182
				S121.57,152.824,121.002,152.036z M122.017,146.606c-0.333,0.575-0.498,1.332-0.498,2.268c0,0.937,0.165,1.692,0.498,2.268
				c0.331,0.576,0.85,0.864,1.554,0.864s1.219-0.286,1.542-0.857c0.324-0.572,0.485-1.33,0.485-2.274
				c0-0.943-0.161-1.702-0.485-2.274c-0.323-0.571-0.838-0.857-1.542-0.857S122.348,146.03,122.017,146.606z"/>
			<path fill="#767B7C" d="M128.047,144.734h3.047v8.388h-1.344v-7.128h-1.703V144.734z"/>
			<path fill="#767B7C" d="M132.822,147.146v-2.412h5.904v1.26l-3.553,7.128h-1.56l3.468-7.104h-2.977v1.128H132.822z"/>
			<path fill="#767B7C" d="M67.111,159.134h3.048v8.388h-1.345v-7.128h-1.703V159.134z"/>
			<path fill="#767B7C" d="M75.379,164.126v-1.535h1.344v1.535h1.008v1.284h-1.008v2.112h-1.344v-2.112h-3.6v-1.248l3.084-5.027
				h1.548l-3.036,4.991H75.379z"/>
			<path fill="#767B7C" d="M79.321,164.414c-0.173-0.176-0.259-0.388-0.259-0.636s0.086-0.458,0.259-0.63
				c0.172-0.172,0.382-0.258,0.63-0.258s0.46,0.086,0.637,0.258c0.176,0.172,0.264,0.382,0.264,0.63s-0.088,0.46-0.264,0.636
				c-0.177,0.177-0.389,0.265-0.637,0.265S79.493,164.59,79.321,164.414z M79.321,167.354c-0.173-0.176-0.259-0.388-0.259-0.636
				s0.086-0.458,0.259-0.63c0.172-0.172,0.382-0.259,0.63-0.259s0.46,0.087,0.637,0.259c0.176,0.172,0.264,0.382,0.264,0.63
				s-0.088,0.46-0.264,0.636c-0.177,0.176-0.389,0.264-0.637,0.264S79.493,167.53,79.321,167.354z"/>
			<path fill="#767B7C" d="M82.639,160.394v-1.26h4.908v1.104l-2.027,2.269c0.768,0.023,1.367,0.266,1.799,0.726
				c0.433,0.46,0.648,1.01,0.648,1.65c0,0.855-0.29,1.527-0.87,2.016s-1.325,0.732-2.237,0.732s-1.805-0.292-2.677-0.876
				l0.601-1.141c0.688,0.48,1.408,0.72,2.16,0.72c0.487,0,0.889-0.113,1.205-0.342c0.316-0.228,0.475-0.556,0.475-0.983
				s-0.176-0.771-0.528-1.026s-0.84-0.384-1.464-0.384c-0.312,0-0.611,0.044-0.9,0.132v-1.08l1.944-2.256H82.639z"/>
			<path fill="#767B7C" d="M90.211,166.436c-0.568-0.788-0.852-1.842-0.852-3.162s0.283-2.374,0.852-3.162s1.424-1.182,2.568-1.182
				c1.144,0,2,0.394,2.567,1.182c0.568,0.788,0.853,1.842,0.853,3.162s-0.284,2.374-0.853,3.162
				c-0.567,0.788-1.424,1.182-2.567,1.182C91.635,167.618,90.779,167.224,90.211,166.436z M91.225,161.006
				c-0.332,0.575-0.498,1.332-0.498,2.268c0,0.937,0.166,1.692,0.498,2.268c0.332,0.576,0.85,0.864,1.555,0.864
				c0.703,0,1.218-0.286,1.541-0.857c0.324-0.572,0.486-1.33,0.486-2.274c0-0.943-0.162-1.702-0.486-2.274
				c-0.323-0.571-0.838-0.857-1.541-0.857C92.074,160.142,91.557,160.43,91.225,161.006z"/>
		</g>
		<g>
			<path fill="#767B7C" d="M166.867,159.549h-1.536l-2.208-6.384h1.392l1.584,4.824l1.584-4.824h1.393l1.584,4.824l1.584-4.824
				h1.392l-2.208,6.384h-1.536l-1.512-4.368L166.867,159.549z"/>
			<path fill="#767B7C" d="M177.811,159.549h-1.536l-2.208-6.384h1.393l1.584,4.824l1.584-4.824h1.392l1.584,4.824l1.584-4.824
				h1.393l-2.208,6.384h-1.536l-1.512-4.368L177.811,159.549z"/>
			<path fill="#767B7C" d="M188.755,159.549h-1.536l-2.208-6.384h1.392l1.584,4.824l1.584-4.824h1.393l1.584,4.824l1.584-4.824
				h1.392l-2.208,6.384h-1.536l-1.512-4.368L188.755,159.549z"/>
		</g>
		<g>
			<path fill="#767B7C" d="M217.788,154.425c-0.664,0-1.164,0.216-1.5,0.648c-0.336,0.432-0.504,1.012-0.504,1.739v2.736h-1.344
				v-6.384h1.344v1.284c0.217-0.4,0.511-0.729,0.883-0.984c0.371-0.256,0.766-0.388,1.182-0.396l0.012,1.356
				C217.837,154.425,217.812,154.425,217.788,154.425z"/>
			<path fill="#767B7C" d="M225.145,156.946h-5.004c0.031,0.464,0.243,0.838,0.636,1.121c0.392,0.284,0.84,0.427,1.344,0.427
				c0.8,0,1.408-0.252,1.824-0.756l0.768,0.84c-0.688,0.712-1.584,1.067-2.688,1.067c-0.896,0-1.658-0.298-2.286-0.894
				s-0.942-1.396-0.942-2.4s0.32-1.802,0.96-2.394c0.641-0.592,1.395-0.889,2.263-0.889c0.867,0,1.605,0.263,2.214,0.786
				c0.607,0.524,0.912,1.246,0.912,2.166V156.946z M220.141,155.889h3.659c0-0.536-0.168-0.948-0.504-1.236
				c-0.336-0.287-0.75-0.432-1.242-0.432c-0.491,0-0.934,0.15-1.325,0.45C220.336,154.971,220.141,155.378,220.141,155.889z"/>
			<path fill="#767B7C" d="M231.168,157.641c0,0.608-0.22,1.095-0.66,1.458c-0.439,0.364-1.004,0.546-1.691,0.546
				c-0.464,0-0.946-0.084-1.446-0.252s-0.942-0.403-1.326-0.708l0.648-1.044c0.744,0.561,1.464,0.84,2.16,0.84
				c0.304,0,0.544-0.069,0.72-0.21c0.176-0.14,0.264-0.317,0.264-0.533c0-0.32-0.424-0.608-1.271-0.864
				c-0.064-0.024-0.112-0.04-0.145-0.048c-1.328-0.36-1.992-0.96-1.992-1.801c0-0.592,0.23-1.065,0.69-1.422
				c0.46-0.355,1.058-0.534,1.794-0.534s1.432,0.217,2.088,0.648l-0.504,0.996c-0.521-0.344-1.084-0.516-1.692-0.516
				c-0.319,0-0.58,0.058-0.779,0.174c-0.2,0.116-0.3,0.29-0.3,0.521c0,0.208,0.104,0.36,0.312,0.456
				c0.145,0.072,0.346,0.141,0.606,0.204c0.26,0.064,0.489,0.128,0.689,0.192c0.2,0.063,0.395,0.136,0.582,0.216
				c0.188,0.08,0.39,0.191,0.606,0.336C230.952,156.586,231.168,157.034,231.168,157.641z"/>
			<path fill="#767B7C" d="M234.349,154.246v3.239c0,0.305,0.08,0.547,0.24,0.727c0.159,0.18,0.384,0.27,0.672,0.27
				s0.563-0.14,0.828-0.42l0.552,0.948c-0.473,0.424-0.994,0.636-1.566,0.636s-1.06-0.197-1.464-0.594
				c-0.404-0.396-0.605-0.93-0.605-1.602v-3.204H232.2v-1.08h0.805v-2.004h1.344v2.004h1.68v1.08H234.349z"/>
			<path fill="#767B7C" d="M242.88,159.549h-1.224v-0.852c-0.528,0.632-1.236,0.947-2.124,0.947c-0.664,0-1.214-0.188-1.65-0.563
				c-0.436-0.376-0.653-0.878-0.653-1.506s0.231-1.099,0.695-1.41c0.464-0.312,1.092-0.468,1.884-0.468h1.74v-0.24
				c0-0.848-0.472-1.272-1.416-1.272c-0.592,0-1.208,0.216-1.848,0.648l-0.6-0.84c0.775-0.616,1.655-0.925,2.64-0.925
				c0.752,0,1.366,0.19,1.842,0.57s0.714,0.979,0.714,1.794V159.549z M241.536,157.173v-0.54h-1.512
				c-0.969,0-1.452,0.304-1.452,0.912c0,0.312,0.12,0.55,0.359,0.714c0.24,0.164,0.574,0.246,1.003,0.246
				c0.428,0,0.802-0.12,1.121-0.36C241.376,157.906,241.536,157.582,241.536,157.173z"/>
			<path fill="#767B7C" d="M249.216,156.622v-3.456h1.344v6.384h-1.344v-1.164c-0.216,0.393-0.514,0.7-0.894,0.924
				c-0.38,0.225-0.79,0.336-1.23,0.336c-0.72,0-1.302-0.22-1.746-0.66c-0.443-0.439-0.666-1.075-0.666-1.907v-3.912h1.345v3.504
				c0,1.176,0.487,1.764,1.464,1.764c0.464,0,0.868-0.153,1.212-0.462C249.044,157.664,249.216,157.213,249.216,156.622z"/>
			<path fill="#767B7C" d="M255.852,154.425c-0.664,0-1.164,0.216-1.5,0.648c-0.336,0.432-0.504,1.012-0.504,1.739v2.736h-1.344
				v-6.384h1.344v1.284c0.217-0.4,0.511-0.729,0.883-0.984c0.371-0.256,0.766-0.388,1.182-0.396l0.012,1.356
				C255.9,154.425,255.876,154.425,255.852,154.425z"/>
			<path fill="#767B7C" d="M262.38,159.549h-1.224v-0.852c-0.528,0.632-1.236,0.947-2.124,0.947c-0.664,0-1.214-0.188-1.65-0.563
				c-0.436-0.376-0.653-0.878-0.653-1.506s0.231-1.099,0.695-1.41c0.464-0.312,1.092-0.468,1.884-0.468h1.74v-0.24
				c0-0.848-0.472-1.272-1.416-1.272c-0.592,0-1.208,0.216-1.848,0.648l-0.6-0.84c0.775-0.616,1.655-0.925,2.64-0.925
				c0.752,0,1.366,0.19,1.842,0.57s0.714,0.979,0.714,1.794V159.549z M261.036,157.173v-0.54h-1.512
				c-0.969,0-1.452,0.304-1.452,0.912c0,0.312,0.12,0.55,0.359,0.714c0.24,0.164,0.574,0.246,1.003,0.246
				c0.428,0,0.802-0.12,1.121-0.36C260.876,157.906,261.036,157.582,261.036,157.173z"/>
			<path fill="#767B7C" d="M267.6,154.425c-0.664,0-1.164,0.216-1.5,0.648c-0.336,0.432-0.504,1.012-0.504,1.739v2.736h-1.344
				v-6.384h1.344v1.284c0.217-0.4,0.511-0.729,0.883-0.984c0.371-0.256,0.766-0.388,1.182-0.396l0.012,1.356
				C267.648,154.425,267.624,154.425,267.6,154.425z"/>
		</g>
	</g>
</g>
<g id="animacao">
</g>
<g id="Camada_4">
</g>
</svg>
