<?xml version="1.0" encoding="utf-8"?>
<!-- Generator: Adobe Illustrator 17.0.0, SVG Export Plug-In . SVG Version: 6.00 Build 0)  -->
<!DOCTYPE svg PUBLIC "-//W3C//DTD SVG 1.1//EN" "http://www.w3.org/Graphics/SVG/1.1/DTD/svg11.dtd">
<svg version="1.1" xmlns="http://www.w3.org/2000/svg" xmlns:xlink="http://www.w3.org/1999/xlink" x="0px" y="0px" width="320px"
	 height="184px" viewBox="0 0 320 184" enable-background="new 0 0 320 184" xml:space="preserve">
<symbol  id="arrow-pastas" viewBox="-4.354 -1.707 8.707 5.061">
	<g>
		<polyline fill="none" stroke="#3C3C3C" stroke-miterlimit="10" points="-4,3 -0.001,-1 4,3 		"/>
	</g>
</symbol>
<symbol  id="arrow2" viewBox="-4.354 -2.53 8.707 5.061">
	<g>
		<g>
			<polyline fill="none" stroke="#F5F5F5" stroke-miterlimit="10" points="-4,2.177 -0.001,-1.823 4,2.177 			"/>
		</g>
	</g>
</symbol>
<g id="Camada_2">
</g>
<g id="Camada_6" display="none">
</g>
<g id="Camada_6_cópia" display="none">
</g>
<g id="Camada_7" display="none">
</g>
<g id="Camada_9" display="none">
</g>
<g id="Camada_5">
</g>
<g id="Camada_1">
	<g>
		<g>
			<rect x="6.353" y="58" fill="#505151" width="58" height="126"/>
			<rect x="201.167" y="57.5" fill="#F1F3F3" width="88.622" height="126.276"/>
			<rect x="64.186" y="58" fill="#464849" width="136.814" height="125.831"/>
			<rect x="6.5" y="48" fill="#E8EBEC" width="283" height="10"/>
			<rect x="6" y="116" opacity="0.05" fill="#FFFFFF" width="57.853" height="14"/>
			<g>
				<rect x="14" y="68" fill="#D0D6D8" width="12" height="4"/>
				<rect x="20" y="85" fill="#D0D6D8" width="15" height="4"/>
				<rect x="20" y="103" fill="#D0D6D8" width="18" height="4"/>
				<rect x="26" y="120" fill="#D0D6D8" width="12" height="4"/>
			</g>
			<rect x="77" y="67" fill="#FFFFFF" width="25" height="4"/>
			<rect x="77" y="83" fill="#FFFFFF" width="27" height="4"/>
			<rect x="82" y="97" fill="#FFFFFF" width="30" height="4"/>
			<rect x="82" y="113" fill="#FFFFFF" width="24" height="4"/>
			<rect x="87" y="128" fill="#FFFFFF" width="33" height="4"/>
			<rect x="87" y="142" fill="#FFFFFF" width="33" height="4"/>
			<rect x="82" y="157" fill="#FFFFFF" width="23" height="4"/>
			<g>
				<circle fill="#FF6251" cx="13.111" cy="40.001" r="2.204"/>
				<circle fill="#FFBE01" cx="20.017" cy="40.001" r="2.204"/>
				<circle fill="#01CA00" cx="26.923" cy="40.001" r="2.204"/>
			</g>
		</g>
		<g>
			<path fill="none" stroke="#D0D6D8" stroke-width="3" stroke-miterlimit="10" d="M5.5,184V38.5c0-3.3,2.7-6,6-6h272
				c3.3,0,6,2.7,6,6v145.276"/>
		</g>
		<g>
			<circle fill="#FFFFFF" stroke="#0ADBA4" stroke-width="5" stroke-miterlimit="10" cx="290.135" cy="115.846" r="19.887"/>
			<polyline fill="none" stroke="#0ADBA4" stroke-width="5" stroke-miterlimit="10" points="277.366,112.275 290.359,123.891 
				315.33,91.806 			"/>
		</g>
	</g>
</g>
<g id="animacao">
</g>
<g id="Camada_4">
</g>
</svg>
