<?xml version="1.0" encoding="utf-8"?>
<!-- Generator: Adobe Illustrator 16.0.0, SVG Export Plug-In . SVG Version: 6.00 Build 0)  -->
<!DOCTYPE svg PUBLIC "-//W3C//DTD SVG 1.1//EN" "http://www.w3.org/Graphics/SVG/1.1/DTD/svg11.dtd">
<svg version="1.1" id="Layer_1" xmlns="http://www.w3.org/2000/svg" xmlns:xlink="http://www.w3.org/1999/xlink" x="0px" y="0px"
	 width="16px" height="16px" viewBox="0 0 16 16" enable-background="new 0 0 16 16" xml:space="preserve">
<path fill="#A3A3A3" d="M13.626,4.9c-0.582-0.999-1.369-1.788-2.365-2.368c-0.997-0.584-2.082-0.874-3.263-0.874
	c-1.179,0-2.266,0.29-3.263,0.874C3.739,3.112,2.952,3.901,2.368,4.9C1.79,5.893,1.5,6.982,1.5,8.159
	c0,1.417,0.411,2.691,1.24,3.824c0.828,1.127,1.894,1.912,3.202,2.346c0.152,0.03,0.267,0.009,0.34-0.057
	c0.072-0.07,0.108-0.152,0.108-0.254c0-0.02,0-0.172-0.002-0.457c-0.002-0.288-0.004-0.542-0.004-0.756l-0.197,0.034
	c-0.125,0.023-0.281,0.034-0.467,0.032c-0.19-0.005-0.387-0.023-0.59-0.06c-0.203-0.038-0.392-0.123-0.567-0.254
	c-0.171-0.136-0.296-0.307-0.372-0.521L4.107,11.84c-0.057-0.129-0.146-0.272-0.269-0.432c-0.121-0.156-0.243-0.262-0.368-0.321
	l-0.057-0.04c-0.042-0.029-0.076-0.062-0.11-0.102c-0.036-0.038-0.062-0.078-0.078-0.121c-0.015-0.04-0.002-0.069,0.042-0.095
	c0.047-0.025,0.127-0.04,0.248-0.04l0.167,0.027c0.114,0.023,0.254,0.089,0.421,0.203c0.165,0.112,0.303,0.258,0.411,0.438
	c0.127,0.233,0.286,0.411,0.467,0.531c0.187,0.123,0.368,0.18,0.555,0.18c0.188,0,0.347-0.01,0.482-0.042
	c0.137-0.025,0.264-0.067,0.383-0.127c0.051-0.379,0.188-0.669,0.415-0.872c-0.324-0.033-0.609-0.082-0.87-0.152
	c-0.256-0.065-0.522-0.178-0.793-0.33c-0.275-0.152-0.501-0.34-0.681-0.564c-0.18-0.227-0.33-0.522-0.446-0.891
	C3.91,8.724,3.851,8.3,3.851,7.822c0-0.684,0.225-1.265,0.669-1.746C4.31,5.564,4.331,4.991,4.577,4.35
	c0.165-0.051,0.41-0.011,0.732,0.116c0.319,0.127,0.557,0.235,0.707,0.326c0.148,0.089,0.269,0.165,0.36,0.226
	c0.522-0.144,1.064-0.218,1.623-0.218s1.098,0.074,1.627,0.218l0.319-0.203c0.223-0.135,0.48-0.258,0.781-0.37
	c0.296-0.114,0.526-0.146,0.686-0.095c0.254,0.641,0.274,1.214,0.067,1.727c0.444,0.48,0.669,1.062,0.669,1.746
	c0,0.478-0.06,0.903-0.174,1.271c-0.116,0.37-0.267,0.669-0.448,0.891c-0.187,0.225-0.413,0.408-0.686,0.561
	c-0.275,0.152-0.54,0.265-0.798,0.33c-0.254,0.07-0.544,0.119-0.865,0.152c0.292,0.254,0.438,0.656,0.438,1.202v1.788
	c0,0.102,0.036,0.184,0.108,0.254c0.067,0.065,0.182,0.087,0.332,0.057c1.31-0.434,2.376-1.219,3.203-2.346
	C14.085,10.85,14.5,9.576,14.5,8.159C14.5,6.982,14.208,5.893,13.626,4.9L13.626,4.9z"/>
</svg>
