<?xml version="1.0" encoding="utf-8"?>
<!-- Generator: Adobe Illustrator 16.0.0, SVG Export Plug-In . SVG Version: 6.00 Build 0)  -->
<!DOCTYPE svg PUBLIC "-//W3C//DTD SVG 1.1//EN" "http://www.w3.org/Graphics/SVG/1.1/DTD/svg11.dtd">
<svg version="1.1" id="Layer_1" xmlns="http://www.w3.org/2000/svg" xmlns:xlink="http://www.w3.org/1999/xlink" x="0px" y="0px"
	 width="210px" height="210px" viewBox="0 0 210 210" enable-background="new 0 0 210 210" xml:space="preserve">
<path fill="#0ADBA4" d="M210,105c0,57.99-47.01,105-105,105C47.01,210,0,162.99,0,105C0,47.01,47.01,0,105,0
	C162.99,0,210,47.01,210,105"/>
<path fill="#08BC88" d="M156.744,114.874c8.438,6.047-5.041,15.837,3.182,26.91c12.923,17.401-17.12,42.3-53.577,50.59
	c-15.328,3.485-30.577-6.799-46-27.176c-2.866-3.786,14-14.5,0.25-25s4.575-26.144-9.088-37.322
	c-13.662-11.178,8.156-23.619,2.222-33.941C43.349,50.874,83.229,20.678,107.25,22.374c25.832,1.824,35.124,18.519,41.861,27.671
	c6.737,9.153-2.412,19.534,4.358,26.544C165.349,88.892,148.306,108.827,156.744,114.874"/>
<path fill="#0CAA75" d="M133.082,88.405c0,0-2.524,17.092,5.519,23.531c15.747,12.605-8.939,18.848,4.247,30.256
	c10.291,8.903,2.471,22.895,2.471,22.895s-95.286,17.753-81.2,0.806c6.872-8.268,21.804-15.852,10.767-24.024
	c-11.038-8.171,5.221-18.319-3.158-26.995c-8.38-8.676,0.573-22.935,10.12-28.5C96.918,77.59,133.082,88.405,133.082,88.405"/>
<rect x="92.099" y="114.875" fill="#C4C4C4" width="27.417" height="48.5"/>
<path fill="#FF9D4D" d="M93.848,134.624c0,0-4.5,15.5-12,20.75s-15.25,5.5-24.75,8s-24.266,17.892-24.266,17.892
	S59.155,210,104.098,210c37.75,0,0-76.626,0-76.626L93.848,134.624z"/>
<path fill="#FF9D4D" d="M117.626,134.624c0,0,4.5,15.5,12,20.75s15.25,5.5,24.75,8s22.984,17.71,22.984,17.71
	S150.515,210,107.376,210c-46.861,0,0-76.626,0-76.626L117.626,134.624z"/>
<g>
	<defs>
		<path id="SVGID_59_" d="M50.112,143.75c0,16.776,24.904,30.375,55.625,30.375c30.72,0,55.625-13.599,55.625-30.375
			c0-16.775-24.905-30.375-55.625-30.375C75.017,113.375,50.112,126.974,50.112,143.75"/>
	</defs>
	<clipPath id="SVGID_2_">
		<use xlink:href="#SVGID_59_"  overflow="visible"/>
	</clipPath>
	<path clip-path="url(#SVGID_2_)" fill="#FF9D4D" d="M154.376,163.374c-9.5-2.5-17.25-2.75-24.75-8
		c-4.635-3.244-7.121-10.4-9.111-15.396v-25.104H91.098v24.753c-1.963,5.006-4.505,12.426-9.25,15.747c-7.5,5.25-15.25,5.5-24.75,8
		s-18.512,13.227-18.512,13.227s27.762,31.523,65.512,31.523c0.564,0,1.109-0.019,1.639-0.052c0.531,0.033,1.075,0.052,1.639,0.052
		c37.75,0,65.512-31.523,65.512-31.523S163.876,165.874,154.376,163.374"/>
</g>
<g>
	<defs>
		<path id="SVGID_61_" d="M77.515,97.61c0,22.551,12.91,40.833,28.834,40.833c15.924,0,28.833-18.282,28.833-40.833
			s-12.909-40.833-28.833-40.833C90.424,56.777,77.515,75.059,77.515,97.61"/>
	</defs>
	<clipPath id="SVGID_4_">
		<use xlink:href="#SVGID_61_"  overflow="visible"/>
	</clipPath>
	<path clip-path="url(#SVGID_4_)" fill="#E28844" d="M154.376,165.374c-9.5-2.5-17.25-2.75-24.75-8
		c-4.635-3.244-7.121-10.4-9.111-15.396v-25.104H91.098v24.753c-1.963,5.006-4.505,12.426-9.25,15.747c-7.5,5.25-15.25,5.5-24.75,8
		s-18.512,13.227-18.512,13.227s27.762,31.523,65.512,31.523c0.564,0,1.109-0.019,1.639-0.052c0.531,0.033,1.075,0.052,1.639,0.052
		c37.75,0,65.512-31.523,65.512-31.523S163.876,167.874,154.376,165.374"/>
</g>
<path fill="#FFAF66" d="M133.531,85.708c0,8.998-0.404,19.653-5.22,25.271c-5.652,6.593-11.641,13.093-17.999,14.949
	c-1.381,0.403-6.275,0.429-7.55,0.075c-6.334-1.759-10.869-6.974-18.33-14.929c-5.068-5.405-5.266-16.326-5.266-25.366
	c0-22.552,12.17-34.833,27.182-34.833C121.361,50.875,133.531,63.156,133.531,85.708"/>
<path fill="#464646" d="M124.951,83.541c0,1.565-1.463,1.833-3.267,1.833c-1.804,0-3.267-0.268-3.267-1.833
	c0-1.564,1.463-2.833,3.267-2.833C123.488,80.708,124.951,81.976,124.951,83.541"/>
<path fill="#464646" d="M95.365,83.541c0,1.565-1.463,1.833-3.267,1.833c-1.804,0-3.267-0.268-3.267-1.833
	c0-1.564,1.463-2.833,3.267-2.833C93.902,80.708,95.365,81.976,95.365,83.541"/>
<g opacity="0.6">
	<g>
		<defs>
			<rect id="SVGID_63_" x="116.084" y="76.089" width="15.168" height="6.02"/>
		</defs>
		<clipPath id="SVGID_6_">
			<use xlink:href="#SVGID_63_"  overflow="visible"/>
		</clipPath>
		
			<path clip-path="url(#SVGID_6_)" fill="none" stroke="#282828" stroke-linecap="round" stroke-linejoin="round" stroke-miterlimit="10" d="
			M130.752,81.613c-2.017-3.787-6.668-7.489-14.168-2.882"/>
	</g>
</g>
<g opacity="0.6">
	<g>
		<defs>
			<rect id="SVGID_65_" x="82.305" y="76.089" width="15.168" height="6.02"/>
		</defs>
		<clipPath id="SVGID_8_">
			<use xlink:href="#SVGID_65_"  overflow="visible"/>
		</clipPath>
		
			<path clip-path="url(#SVGID_8_)" fill="none" stroke="#282828" stroke-linecap="round" stroke-linejoin="round" stroke-miterlimit="10" d="
			M82.805,81.613c2.017-3.787,6.668-7.489,14.168-2.882"/>
	</g>
</g>
<path fill="#FFAF66" d="M81.417,88.405c0,4.24-1.679,7.677-3.75,7.677c-2.071,0-3.75-3.437-3.75-7.677
	c0-4.24,1.679-7.677,3.75-7.677C79.739,80.728,81.417,84.165,81.417,88.405"/>
<path fill="#FFAF66" d="M138.932,88.405c0,4.24-1.679,7.677-3.75,7.677s-3.75-3.437-3.75-7.677c0-4.24,1.679-7.677,3.75-7.677
	S138.932,84.165,138.932,88.405"/>
<path fill="#FFFFFF" d="M136.764,93.401c0,0.727-0.589,1.316-1.316,1.316s-1.316-0.589-1.316-1.316s0.589-1.316,1.316-1.316
	S136.764,92.674,136.764,93.401"/>
<path fill="#FFFFFF" d="M78.17,93.401c0,0.727-0.589,1.316-1.316,1.316c-0.727,0-1.316-0.589-1.316-1.316s0.589-1.316,1.316-1.316
	C77.581,92.085,78.17,92.674,78.17,93.401"/>
<path fill="#F4DD7A" d="M105.207,210c-26.192,0-40.45-7.815-40.45-7.815l6.244-41.958l3.4-1.042l-3.445,33.481
	c0,0,13.195,6.541,35.377,6.541s34.294-6.541,34.294-6.541l-3.445-33.445l3.4,1.006l5.6,41.314
	C146.182,201.541,131.399,210,105.207,210"/>
<path fill="#08BC88" d="M115.672,51.854c0,0-26.381-6.811-26.458,13.989c-0.095,25.716-34.216,44.375-26.458,33.865
	c7.759-10.51-5.141-36.24,19.341-56.51C107.25,22.375,115.672,51.854,115.672,51.854"/>
<path fill="#EF9D59" d="M112.786,99.385c0.48-1.021-0.029-2.02-1.189-3.424c-1.485-1.798-3.541-5.068-3.541-14.503
	c0-1.886-3.44-2.139-3.44,0c0,10.246-2.165,13.157-3.656,14.726c-1.071,1.129-1.549,2.156-1.112,3.201
	c0.438,1.044,1.938,0.69,3.25,1.125c1.314,0.436,1.188,1.563,3.235,1.563c1.953,0,1.943-1.183,3.182-1.563
	C110.925,100.079,112.286,100.448,112.786,99.385"/>
<rect x="96.596" y="107.49" fill="#FFFFFF" width="19.504" height="3.15"/>
<path fill="#A86C3B" d="M92.939,107.674c0.111-0.535,7.354-2.799,13.457-0.477c5.262-2.322,12.274-0.112,12.689,0.477
	c0.356,0.506-5.255,1.149-12.448,1.149S92.828,108.209,92.939,107.674"/>
<path fill="#A86C3B" d="M95.69,108.531c0,2.623,4.132,5.333,10.73,5.333c6.599,0,10.621-2.71,10.621-5.333
	c0,0-3.426,2.157-10.621,2.157C99.225,110.688,95.69,108.531,95.69,108.531"/>
</svg>
