<?xml version="1.0" encoding="utf-8"?>
<!-- Generator: Adobe Illustrator 16.0.0, SVG Export Plug-In . SVG Version: 6.00 Build 0)  -->
<!DOCTYPE svg PUBLIC "-//W3C//DTD SVG 1.1//EN" "http://www.w3.org/Graphics/SVG/1.1/DTD/svg11.dtd">
<svg version="1.1" id="Layer_1" xmlns="http://www.w3.org/2000/svg" xmlns:xlink="http://www.w3.org/1999/xlink" x="0px" y="0px"
	 width="210px" height="210px" viewBox="0 0 210 210" enable-background="new 0 0 210 210" xml:space="preserve">
<path fill="#08BC88" d="M210,105c0,57.99-47.01,105-105,105S0,162.99,0,105C0,47.01,47.01,0,105,0S210,47.01,210,105"/>
<g opacity="0.6">
	<g>
		<defs>
			<rect id="SVGID_55_" x="50.32" y="50.689" width="104.863" height="70.52"/>
		</defs>
		<clipPath id="SVGID_2_">
			<use xlink:href="#SVGID_55_"  overflow="visible"/>
		</clipPath>
		<path clip-path="url(#SVGID_2_)" fill="#282828" d="M155.154,50.732c-2.028-2.029-104.835,68.149-104.835,68.149l1.969,2.326
			C52.288,121.208,157.184,52.761,155.154,50.732"/>
	</g>
</g>
<g opacity="0.6">
	<g>
		<defs>
			<rect id="SVGID_57_" x="43.084" y="66.719" width="119.72" height="39.02"/>
		</defs>
		<clipPath id="SVGID_4_">
			<use xlink:href="#SVGID_57_"  overflow="visible"/>
		</clipPath>
		<path clip-path="url(#SVGID_4_)" fill="#282828" d="M162.791,66.836C161.41,64.32,43.084,102.96,43.084,102.96l1.24,2.783
			C44.324,105.744,164.172,69.353,162.791,66.836"/>
	</g>
</g>
<path fill="#08A574" d="M88.682,94.186c0,8.669-7.027,15.697-15.696,15.697s-15.697-7.028-15.697-15.697s7.028-15.697,15.697-15.697
	S88.682,85.517,88.682,94.186"/>
<path fill="#08A574" d="M148.809,72.353c0,33.533-18.459,52.188-42.557,52.188c-24.097,0-42.556-18.655-42.556-52.188
	c0-33.532,20.187-53.989,42.556-53.989S148.809,38.821,148.809,72.353"/>
<path fill="#4C4C4C" d="M160.28,163.374c-9.5-2.5-20.25-2.75-27.75-8c-4.635-3.244-8.122-10.4-10.111-15.396v-25.104H89.002v24.753
	c-1.963,5.006-5.505,12.426-10.25,15.747c-7.5,5.25-18.25,5.5-27.75,8s-20.911,15.202-20.911,15.202s28.217,31.377,75.374,31.377
	c47.156,0,73.655-30.582,73.655-30.582S169.78,165.874,160.28,163.374"/>
<g>
	<defs>
		<path id="SVGID_67_" d="M105.642,113.375c-30.722,0-55.626-10.276-55.626,6.499c0,16.776,24.904,54.251,55.626,54.251
			c30.721,0,55.624-37.475,55.624-54.251c0-7.539-5.028-9.615-13.357-9.614C137.706,110.259,122.554,113.375,105.642,113.375"/>
	</defs>
	<clipPath id="SVGID_6_">
		<use xlink:href="#SVGID_67_"  overflow="visible"/>
	</clipPath>
	<path clip-path="url(#SVGID_6_)" fill="#EAD063" d="M160.28,163.374c-9.5-2.5-20.25-2.75-27.75-8
		c-4.635-3.244-8.122-10.4-10.111-15.396v-25.104H89.002v24.753c-1.964,5.006-5.505,12.426-10.25,15.747
		c-7.5,5.25-18.25,5.5-27.75,8S32.49,176.601,32.49,176.601s33.762,31.523,71.512,31.523c0.564,0,1.109-0.019,1.64-0.052
		c0.53,0.033,1.074,0.052,1.639,0.052c37.75,0,71.512-31.523,71.512-31.523S169.78,165.874,160.28,163.374"/>
</g>
<g>
	<defs>
		<path id="SVGID_69_" d="M79.849,116.83c0.615,2.642,1.375,5.063,2.307,7.107c3.807,8.347,13.008,14.805,16.036,16.683
			c3.027,1.878,14.722,1.247,16.808-0.213s11.808-8.55,15.499-16.798c0.836-1.869,1.527-4.056,2.099-6.436
			c-7.984-2.42-17.175-3.798-26.955-3.798C96.334,113.375,87.558,114.624,79.849,116.83"/>
	</defs>
	<clipPath id="SVGID_8_">
		<use xlink:href="#SVGID_69_"  overflow="visible"/>
	</clipPath>
	<path clip-path="url(#SVGID_8_)" fill="#D1BA5A" d="M154.28,163.374c-9.5-2.5-14.25-2.75-21.75-8
		c-4.635-3.244-8.122-10.4-10.111-15.396v-25.104H89.002v24.753c-1.964,5.006-5.505,12.426-10.25,15.747
		c-7.5,5.25-12.25,5.5-21.75,8S38.49,176.601,38.49,176.601s27.762,31.523,65.512,31.523c0.564,0,1.109-0.019,1.64-0.052
		c0.53,0.033,1.074,0.052,1.639,0.052c37.75,0,65.512-31.523,65.512-31.523S163.78,165.874,154.28,163.374"/>
</g>
<path fill="#F4DD7A" d="M135.086,83.708c0,9.854-0.885,22.38-4.588,30.658c-3.691,8.248-13.413,13.339-15.499,14.799
	s-13.78,2.09-16.809,0.213c-3.027-1.878-12.229-6.337-16.035-14.684c-3.802-8.337-4.736-21.001-4.736-30.986
	c0-22.552,1.798-37.5,28.834-37.5C133.288,46.208,135.086,61.156,135.086,83.708"/>
<g opacity="0.5">
	<g>
		<defs>
			<rect id="SVGID_71_" x="107.413" y="104.79" width="11.375" height="4.46"/>
		</defs>
		<clipPath id="SVGID_10_">
			<use xlink:href="#SVGID_71_"  overflow="visible"/>
		</clipPath>
		<path clip-path="url(#SVGID_10_)" fill="#282828" d="M107.413,105.374c0,0,0.791-0.29,1.96-0.461
			c0.293-0.045,0.609-0.094,0.943-0.125c0.343-0.008,0.718,0.02,1.1,0.049c0.385,0.03,0.785,0.071,1.188,0.128
			c0.413,0.031,0.796,0.175,1.19,0.287c0.39,0.128,0.78,0.253,1.156,0.396c0.376,0.146,0.72,0.37,1.057,0.556
			c0.332,0.201,0.658,0.373,0.926,0.622c0.276,0.23,0.523,0.462,0.745,0.675c0.221,0.217,0.388,0.463,0.54,0.662
			c0.159,0.191,0.265,0.393,0.348,0.557c0.172,0.321,0.222,0.528,0.222,0.528s-0.185-0.103-0.503-0.247
			c-0.151-0.079-0.341-0.162-0.56-0.253c-0.21-0.091-0.448-0.194-0.707-0.307c-0.269-0.093-0.555-0.193-0.842-0.313
			c-0.276-0.136-0.613-0.207-0.931-0.322c-0.326-0.101-0.642-0.242-0.982-0.344c-0.349-0.085-0.695-0.191-1.041-0.295
			c-0.345-0.11-0.685-0.248-1.031-0.311c-0.343-0.078-0.68-0.17-1.007-0.268c-0.332-0.106-0.651-0.208-0.956-0.305
			c-0.329-0.068-0.638-0.153-0.923-0.231C108.164,105.752,107.413,105.374,107.413,105.374"/>
	</g>
</g>
<g opacity="0.5">
	<g>
		<defs>
			<rect id="SVGID_73_" x="92.586" y="104.739" width="12.375" height="4.51"/>
		</defs>
		<clipPath id="SVGID_12_">
			<use xlink:href="#SVGID_73_"  overflow="visible"/>
		</clipPath>
		<path clip-path="url(#SVGID_12_)" fill="#282828" d="M104.961,105.374c0,0-0.819,0.373-2.062,0.67
			c-0.31,0.076-0.646,0.159-1.003,0.226c-0.366,0.051-0.716,0.166-1.079,0.261c-0.364,0.096-0.738,0.185-1.12,0.262
			c-0.376,0.097-0.776,0.109-1.147,0.249c-0.38,0.104-0.759,0.211-1.14,0.296c-0.188,0.047-0.378,0.088-0.567,0.125
			c-0.184,0.047-0.35,0.123-0.525,0.173c-0.345,0.115-0.688,0.215-1.021,0.306c-0.314,0.121-0.612,0.236-0.887,0.342
			c-0.291,0.1-0.531,0.218-0.749,0.333c-0.215,0.117-0.438,0.196-0.577,0.303c-0.146,0.102-0.294,0.169-0.372,0.231
			c-0.081,0.064-0.125,0.098-0.125,0.098s0.026-0.224,0.194-0.588c0.073-0.196,0.207-0.388,0.369-0.614
			c0.156-0.234,0.347-0.496,0.606-0.707c0.248-0.227,0.517-0.499,0.833-0.728c0.325-0.202,0.675-0.41,1.047-0.614
			c0.368-0.224,0.767-0.384,1.183-0.508c0.411-0.142,0.837-0.266,1.263-0.392c0.422-0.141,0.871-0.156,1.302-0.217
			c0.433-0.051,0.859-0.086,1.271-0.111c0.412-0.029,0.81-0.049,1.165,0.002c0.362,0.032,0.705,0.083,1.022,0.13
			C104.107,105.079,104.961,105.374,104.961,105.374"/>
	</g>
</g>
<path fill="#08A574" d="M121.044,42.704c0,0-5.412,9.329-21.791,13.197c-16.38,3.867-31.125,30.608-31.125,30.608
	s11.677-48.794,27.497-55C111.443,25.303,121.044,42.704,121.044,42.704"/>
<path fill="#464646" d="M127.071,80.853c0,1.116-2.031,0.271-4.536,0.271S118,81.969,118,80.853c0-1.116,2.03-2.021,4.535-2.021
	S127.071,79.737,127.071,80.853"/>
<path fill="#464646" d="M94.071,80.853c0,1.116-2.181,0.271-4.869,0.271c-2.689,0-4.869,0.845-4.869-0.271
	c0-1.116,2.18-2.021,4.869-2.021C91.891,78.833,94.071,79.737,94.071,80.853"/>
<g opacity="0.6">
	<g>
		<defs>
			<rect id="SVGID_75_" x="116.5" y="70.849" width="13.605" height="4.61"/>
		</defs>
		<clipPath id="SVGID_14_">
			<use xlink:href="#SVGID_75_"  overflow="visible"/>
		</clipPath>
		
			<path clip-path="url(#SVGID_14_)" fill="none" stroke="#282828" stroke-linecap="round" stroke-linejoin="round" stroke-miterlimit="10" d="
			M117,74.956c2.404-4.915,10.07-4.582,12.605-0.332"/>
	</g>
</g>
<g opacity="0.6">
	<g>
		<defs>
			<rect id="SVGID_77_" x="82.398" y="70.849" width="13.606" height="4.61"/>
		</defs>
		<clipPath id="SVGID_16_">
			<use xlink:href="#SVGID_77_"  overflow="visible"/>
		</clipPath>
		
			<path clip-path="url(#SVGID_16_)" fill="none" stroke="#282828" stroke-linecap="round" stroke-linejoin="round" stroke-miterlimit="10" d="
			M95.505,74.956c-2.404-4.915-10.071-4.582-12.605-0.332"/>
	</g>
</g>
<path fill="#C4AD4B" d="M94.586,111.134c0,1.163,11,2.189,11,2.189s11.667-1.026,11.667-2.189l-11.416,0.115L94.586,111.134z"/>
<path fill="#D1BA5A" d="M100.717,115.809c0,1.771,2.478,3.206,5.536,3.206c3.057,0,5.534-1.435,5.534-3.206
	c0,0-2.913,0.69-5.868,0.69C102.965,116.5,100.717,115.809,100.717,115.809"/>
<path fill="#E2CA64" d="M113.667,98.869c0-6.745-5.254-2.919-5.254-20.38c0-2.365-4.312-2.682-4.312,0
	c0,17.461-5.263,13.967-5.263,20.38c0,2.255,3.629,3.143,7.415,3.143C110.038,102.011,113.667,101.364,113.667,98.869"/>
<path fill="#F4DD7A" d="M80.338,86.509c0,4.24-1.679,7.677-3.75,7.677s-3.75-3.437-3.75-7.677c0-4.24,1.679-7.677,3.75-7.677
	S80.338,82.269,80.338,86.509"/>
<path fill="#F4DD7A" d="M139.502,86.509c0,4.24-1.679,7.677-3.75,7.677c-2.07,0-3.75-3.437-3.75-7.677c0-4.24,1.68-7.677,3.75-7.677
	C137.823,78.832,139.502,82.269,139.502,86.509"/>
</svg>
